<?xml version="1.0" encoding="UTF-8" standalone="no"?>
<!-- Created with Inkscape (http://www.inkscape.org/) -->

<svg
   xmlns:dc="http://purl.org/dc/elements/1.1/"
   xmlns:cc="http://creativecommons.org/ns#"
   xmlns:rdf="http://www.w3.org/1999/02/22-rdf-syntax-ns#"
   xmlns:svg="http://www.w3.org/2000/svg"
   xmlns="http://www.w3.org/2000/svg"
   xmlns:sodipodi="http://sodipodi.sourceforge.net/DTD/sodipodi-0.dtd"
   xmlns:inkscape="http://www.inkscape.org/namespaces/inkscape"
   version="1.1"
   id="svg2"
   width="1066.5732"
   height="1066.6667"
   viewBox="0 0 1066.5732 1066.6667"
   sodipodi:docname="3353.svg"
   inkscape:version="0.92.3 (2405546, 2018-03-11)">
  <metadata
     id="metadata232">
    <rdf:RDF>
      <cc:Work
         rdf:about="">
        <dc:format>image/svg+xml</dc:format>
        <dc:type
           rdf:resource="http://purl.org/dc/dcmitype/StillImage" />
      </cc:Work>
    </rdf:RDF>
  </metadata>
  <defs
     id="defs6" />
  <sodipodi:namedview
     id="namedview4"
     pagecolor="#ffffff"
     bordercolor="#000000"
     borderopacity="0.25"
     inkscape:showpageshadow="2"
     inkscape:pageopacity="0.0"
     inkscape:pagecheckerboard="0"
     inkscape:deskcolor="#d1d1d1"
     showgrid="false"
     inkscape:zoom="0.88499993"
     inkscape:cx="509.08622"
     inkscape:cy="423.14512"
     inkscape:window-width="2400"
     inkscape:window-height="1261"
     inkscape:window-x="2391"
     inkscape:window-y="-9"
     inkscape:window-maximized="1"
     inkscape:current-layer="g8" />
  <g
     id="g8"
     inkscape:groupmode="layer"
     inkscape:label="ink_ext_XXXXXX"
     transform="matrix(1.3333333,0,0,-1.3333333,0,1066.6667)">
    <path
       inkscape:connector-curvature="0"
       id="path14"
       style="fill:#12110f;fill-opacity:1;fill-rule:evenodd;stroke:none;stroke-width:0.1"
       d="m 418.305,621.84 0.129,0.067 c 2.967,-4.326 2.903,-11.36 0,-15.681 v -0.065 c -2.967,4.324 -3.032,11.358 -0.129,15.679 v 0" />
    <path
       inkscape:connector-curvature="0"
       id="path16"
       style="fill:#12110f;fill-opacity:1;fill-rule:evenodd;stroke:none;stroke-width:0.1"
       d="m 430.435,616.936 0.128,-0.062 c -1.033,-5.165 -6,-10.133 -11.163,-11.102 v 0 c 0.97,5.1 5.873,10.132 11.035,11.164 v 0" />
    <path
       inkscape:connector-curvature="0"
       id="path18"
       style="fill:#12110f;fill-opacity:1;fill-rule:evenodd;stroke:none;stroke-width:0.1"
       d="m 435.468,604.87 0.064,-0.129 c -4.387,-2.904 -11.421,-2.904 -15.679,0.066 l -0.065,-0.066 c 4.323,2.969 11.292,3.032 15.68,0.129 v 0" />
    <path
       inkscape:connector-curvature="0"
       id="path20"
       style="fill:#12110f;fill-opacity:1;fill-rule:evenodd;stroke:none;stroke-width:0.1"
       d="m 430.499,592.741 v -0.131 c -5.161,1.034 -10.129,6.066 -11.099,11.163 l -0.064,0.065 c 5.162,-0.969 10.13,-5.936 11.163,-11.097 v 0" />
    <path
       inkscape:connector-curvature="0"
       id="path22"
       style="fill:#12110f;fill-opacity:1;fill-rule:evenodd;stroke:none;stroke-width:0.1"
       d="m 418.498,587.706 -0.129,-0.065 c -2.967,4.388 -2.902,11.422 0.065,15.744 h -0.065 c 2.968,-4.258 3.032,-11.291 0.129,-15.679 v 0" />
    <path
       inkscape:connector-curvature="0"
       id="path24"
       style="fill:#12110f;fill-opacity:1;fill-rule:evenodd;stroke:none;stroke-width:0.1"
       d="m 406.368,592.674 -0.129,0.067 c 1.032,5.095 6,10.066 11.161,11.032 v 0.065 c -0.966,-5.162 -5.87,-10.132 -11.032,-11.164 v 0" />
    <path
       inkscape:connector-curvature="0"
       id="path26"
       style="fill:#12110f;fill-opacity:1;fill-rule:evenodd;stroke:none;stroke-width:0.1"
       d="m 401.336,604.741 -0.065,0.129 c 4.388,2.903 11.419,2.84 15.678,-0.063 h 0.065 c -4.324,-2.97 -11.29,-2.97 -15.678,-0.066 v 0" />
    <path
       inkscape:connector-curvature="0"
       id="path28"
       style="fill:#12110f;fill-opacity:1;fill-rule:evenodd;stroke:none;stroke-width:0.1"
       d="m 406.304,616.807 v 0.129 c 5.162,-1.032 10.13,-6 11.096,-11.164 h 0.065 c -5.161,0.969 -10.129,5.873 -11.161,11.035 v 0" />
    <path
       inkscape:connector-curvature="0"
       id="path30"
       style="fill:#12110f;fill-opacity:1;fill-rule:evenodd;stroke:none;stroke-width:0.1"
       d="m 417.596,604.16 c 0.386,-0.387 0.967,-0.515 1.418,-0.129 0.451,0.323 0.515,0.905 0.193,1.354 -0.387,0.454 -0.967,0.518 -1.418,0.196 -0.453,-0.325 -0.518,-0.969 -0.193,-1.421 v 0" />
    <path
       inkscape:connector-curvature="0"
       id="path32"
       style="fill:#12110f;fill-opacity:1;fill-rule:evenodd;stroke:none;stroke-width:0.1"
       d="m 398.562,543.119 0.129,0.062 c 2.903,-4.386 2.903,-11.419 -0.065,-15.743 l 0.065,-0.064 c -2.97,4.323 -3.034,11.357 -0.129,15.745 v 0" />
    <path
       inkscape:connector-curvature="0"
       id="path34"
       style="fill:#12110f;fill-opacity:1;fill-rule:evenodd;stroke:none;stroke-width:0.1"
       d="m 410.691,538.148 0.129,-0.062 c -1.033,-5.162 -6.065,-10.065 -11.162,-11.035 v -0.064 c 0.903,5.097 5.872,10.13 11.033,11.161 v 0" />
    <path
       inkscape:connector-curvature="0"
       id="path36"
       style="fill:#12110f;fill-opacity:1;fill-rule:evenodd;stroke:none;stroke-width:0.1"
       d="m 415.725,526.082 0.064,-0.129 c -4.388,-2.903 -11.421,-2.903 -15.745,0.067 v 0 c 4.26,2.903 11.293,2.967 15.681,0.062 v 0" />
    <path
       inkscape:connector-curvature="0"
       id="path38"
       style="fill:#12110f;fill-opacity:1;fill-rule:evenodd;stroke:none;stroke-width:0.1"
       d="m 410.756,514.016 -0.065,-0.192 c -5.096,1.032 -10.066,6.065 -11.033,11.162 l -0.065,0.064 c 5.162,-0.967 10.13,-5.935 11.163,-11.034 v 0" />
    <path
       inkscape:connector-curvature="0"
       id="path40"
       style="fill:#12110f;fill-opacity:1;fill-rule:evenodd;stroke:none;stroke-width:0.1"
       d="m 398.691,508.92 -0.129,-0.066 c -2.905,4.388 -2.841,11.421 0.064,15.745 v 0.065 c 2.968,-4.322 2.968,-11.355 0.065,-15.744 v 0" />
    <path
       inkscape:connector-curvature="0"
       id="path42"
       style="fill:#12110f;fill-opacity:1;fill-rule:evenodd;stroke:none;stroke-width:0.1"
       d="m 386.625,513.887 -0.128,0.066 c 1.031,5.162 5.999,10.066 11.16,11.033 v 0.064 c -0.967,-5.161 -5.87,-10.13 -11.032,-11.163 v 0" />
    <path
       inkscape:connector-curvature="0"
       id="path44"
       style="fill:#12110f;fill-opacity:1;fill-rule:evenodd;stroke:none;stroke-width:0.1"
       d="m 381.593,525.953 -0.065,0.129 c 4.322,2.905 11.355,2.905 15.678,-0.062 h 0.065 c -4.324,-2.97 -11.357,-2.97 -15.678,-0.067 v 0" />
    <path
       inkscape:connector-curvature="0"
       id="path46"
       style="fill:#12110f;fill-opacity:1;fill-rule:evenodd;stroke:none;stroke-width:0.1"
       d="m 386.497,538.02 0.064,0.128 c 5.162,-1.031 10.129,-6 11.096,-11.097 v -0.064 c -5.096,0.967 -10.065,5.937 -11.16,11.033 v 0" />
    <path
       inkscape:connector-curvature="0"
       id="path48"
       style="fill:#12110f;fill-opacity:1;fill-rule:evenodd;stroke:none;stroke-width:0.1"
       d="m 397.851,525.437 c 0.322,-0.451 0.969,-0.516 1.42,-0.191 0.387,0.32 0.516,0.965 0.129,1.354 -0.322,0.451 -0.902,0.516 -1.356,0.193 -0.451,-0.322 -0.516,-0.969 -0.193,-1.356 v 0" />
    <path
       inkscape:connector-curvature="0"
       id="path50"
       style="fill:#12110f;fill-opacity:1;fill-rule:evenodd;stroke:none;stroke-width:0.1"
       d="m 369.398,467.75 0.129,0.067 c 3.355,-5.099 3.355,-13.294 -0.064,-18.262 v -0.064 c -3.421,4.968 -3.485,13.164 -0.065,18.259 v 0" />
    <path
       inkscape:connector-curvature="0"
       id="path52"
       style="fill:#12110f;fill-opacity:1;fill-rule:evenodd;stroke:none;stroke-width:0.1"
       d="m 383.462,461.944 0.129,-0.065 c -1.224,-5.937 -7.032,-11.744 -12.967,-12.842 l -0.065,-0.062 c 1.16,6 6.904,11.809 12.903,12.969 v 0" />
    <path
       inkscape:connector-curvature="0"
       id="path54"
       style="fill:#12110f;fill-opacity:1;fill-rule:evenodd;stroke:none;stroke-width:0.1"
       d="m 389.335,447.943 0.064,-0.131 c -5.096,-3.421 -13.292,-3.354 -18.26,0.065 h -0.129 c 5.032,3.419 13.228,3.419 18.325,0.066 v 0" />
    <path
       inkscape:connector-curvature="0"
       id="path56"
       style="fill:#12110f;fill-opacity:1;fill-rule:evenodd;stroke:none;stroke-width:0.1"
       d="m 383.527,433.876 -0.065,-0.128 c -5.935,1.16 -11.743,6.966 -12.838,12.968 h -0.065 c 6,-1.098 11.808,-6.84 12.968,-12.84 v 0" />
    <path
       inkscape:connector-curvature="0"
       id="path58"
       style="fill:#12110f;fill-opacity:1;fill-rule:evenodd;stroke:none;stroke-width:0.1"
       d="m 369.527,428.003 -0.129,-0.065 c -3.42,5.098 -3.356,13.23 0.065,18.263 v 0.062 c 3.419,-5.033 3.419,-13.162 0.064,-18.26 v 0" />
    <path
       inkscape:connector-curvature="0"
       id="path60"
       style="fill:#12110f;fill-opacity:1;fill-rule:evenodd;stroke:none;stroke-width:0.1"
       d="m 355.461,433.748 -0.128,0.062 c 1.16,6.002 6.968,11.746 12.968,12.906 v 0.063 c -1.096,-5.998 -6.84,-11.807 -12.84,-13.031 v 0" />
    <path
       inkscape:connector-curvature="0"
       id="path62"
       style="fill:#12110f;fill-opacity:1;fill-rule:evenodd;stroke:none;stroke-width:0.1"
       d="m 349.589,447.812 -0.065,0.131 c 5.098,3.353 13.228,3.353 18.261,-0.066 h 0.065 c -5.033,-3.419 -13.164,-3.486 -18.261,-0.065 v 0" />
    <path
       inkscape:connector-curvature="0"
       id="path64"
       style="fill:#12110f;fill-opacity:1;fill-rule:evenodd;stroke:none;stroke-width:0.1"
       d="m 355.333,461.879 0.064,0.129 c 5.999,-1.224 11.743,-7.033 12.904,-12.971 v -0.062 c -5.935,1.16 -11.743,6.904 -12.968,12.904 v 0" />
    <path
       inkscape:connector-curvature="0"
       id="path66"
       style="fill:#12110f;fill-opacity:1;fill-rule:evenodd;stroke:none;stroke-width:0.1"
       d="m 368.559,447.167 c 0.386,-0.518 1.097,-0.58 1.613,-0.193 0.516,0.387 0.58,1.098 0.194,1.614 -0.387,0.516 -1.098,0.578 -1.614,0.191 -0.516,-0.386 -0.58,-1.095 -0.193,-1.612 v 0" />
    <path
       inkscape:connector-curvature="0"
       id="path68"
       style="fill:#12110f;fill-opacity:1;fill-rule:evenodd;stroke:none;stroke-width:0.1"
       d="m 490.182,440.069 0.193,0.065 c 3.354,-5.033 3.354,-13.229 -0.064,-18.262 v -0.062 c -3.421,5.033 -3.486,13.227 -0.129,18.259 v 0" />
    <path
       inkscape:connector-curvature="0"
       id="path70"
       style="fill:#12110f;fill-opacity:1;fill-rule:evenodd;stroke:none;stroke-width:0.1"
       d="m 504.246,434.325 0.195,-0.062 c -1.226,-6.002 -7.033,-11.746 -12.969,-12.842 l -0.066,-0.065 c 1.163,5.936 6.905,11.745 12.84,12.969 v 0" />
    <path
       inkscape:connector-curvature="0"
       id="path72"
       style="fill:#12110f;fill-opacity:1;fill-rule:evenodd;stroke:none;stroke-width:0.1"
       d="m 510.118,420.325 0.065,-0.129 c -5.033,-3.419 -13.228,-3.357 -18.26,0.062 l -0.065,-0.062 c 5.033,3.484 13.163,3.484 18.26,0.129 v 0" />
    <path
       inkscape:connector-curvature="0"
       id="path74"
       style="fill:#12110f;fill-opacity:1;fill-rule:evenodd;stroke:none;stroke-width:0.1"
       d="m 504.377,406.258 -0.064,-0.194 c -6.002,1.225 -11.744,7.032 -12.841,12.972 l -0.066,0.062 c 5.938,-1.096 11.744,-6.838 12.971,-12.84 v 0" />
    <path
       inkscape:connector-curvature="0"
       id="path76"
       style="fill:#12110f;fill-opacity:1;fill-rule:evenodd;stroke:none;stroke-width:0.1"
       d="m 490.375,400.385 -0.193,-0.063 c -3.357,5.095 -3.292,13.227 0.129,18.26 l -0.065,0.064 c 3.419,-5.032 3.483,-13.162 0.129,-18.261 v 0" />
    <path
       inkscape:connector-curvature="0"
       id="path78"
       style="fill:#12110f;fill-opacity:1;fill-rule:evenodd;stroke:none;stroke-width:0.1"
       d="m 476.31,406.129 -0.194,0.064 c 1.225,6 7.033,11.744 12.968,12.843 l 0.064,0.062 c -1.095,-5.935 -6.839,-11.742 -12.838,-12.969 v 0" />
    <path
       inkscape:connector-curvature="0"
       id="path80"
       style="fill:#12110f;fill-opacity:1;fill-rule:evenodd;stroke:none;stroke-width:0.1"
       d="m 470.437,420.129 -0.065,0.196 c 5.035,3.355 13.229,3.355 18.261,-0.067 h 0.064 c -5.032,-3.419 -13.161,-3.481 -18.26,-0.129 v 0" />
    <path
       inkscape:connector-curvature="0"
       id="path82"
       style="fill:#12110f;fill-opacity:1;fill-rule:evenodd;stroke:none;stroke-width:0.1"
       d="m 476.181,434.196 0.064,0.196 c 5.999,-1.227 11.743,-7.034 12.839,-12.971 l 0.064,-0.065 c -5.934,1.161 -11.743,6.905 -12.967,12.84 v 0" />
    <path
       inkscape:connector-curvature="0"
       id="path84"
       style="fill:#12110f;fill-opacity:1;fill-rule:evenodd;stroke:none;stroke-width:0.1"
       d="m 489.342,419.551 c 0.451,-0.515 1.162,-0.582 1.613,-0.196 0.517,0.388 0.646,1.099 0.258,1.615 -0.387,0.451 -1.16,0.582 -1.613,0.193 -0.516,-0.387 -0.645,-1.163 -0.258,-1.612 v 0" />
    <path
       inkscape:connector-curvature="0"
       id="path86"
       style="fill:#12110f;fill-opacity:1;fill-rule:evenodd;stroke:none;stroke-width:0.1"
       d="m 310.167,336.246 0.129,0.066 c 3.419,-5.098 3.354,-13.292 -0.064,-18.263 l 0.064,-0.062 c -3.483,4.966 -3.483,13.16 -0.129,18.259 v 0" />
    <path
       inkscape:connector-curvature="0"
       id="path88"
       style="fill:#12110f;fill-opacity:1;fill-rule:evenodd;stroke:none;stroke-width:0.1"
       d="m 324.233,330.44 0.194,-0.067 c -1.227,-5.935 -7.033,-11.741 -12.97,-12.84 l -0.065,-0.064 c 1.098,6 6.839,11.808 12.841,12.971 v 0" />
    <path
       inkscape:connector-curvature="0"
       id="path90"
       style="fill:#12110f;fill-opacity:1;fill-rule:evenodd;stroke:none;stroke-width:0.1"
       d="m 330.104,316.436 0.064,-0.129 c -5.097,-3.419 -13.226,-3.355 -18.258,0.066 h -0.064 c 5.032,3.419 13.161,3.419 18.258,0.063 v 0" />
    <path
       inkscape:connector-curvature="0"
       id="path92"
       style="fill:#12110f;fill-opacity:1;fill-rule:evenodd;stroke:none;stroke-width:0.1"
       d="m 324.362,302.37 -0.064,-0.129 c -6.002,1.163 -11.743,6.97 -12.841,12.969 h -0.065 c 5.937,-1.096 11.743,-6.84 12.97,-12.84 v 0" />
    <path
       inkscape:connector-curvature="0"
       id="path94"
       style="fill:#12110f;fill-opacity:1;fill-rule:evenodd;stroke:none;stroke-width:0.1"
       d="m 310.361,296.499 -0.194,-0.066 c -3.354,5.099 -3.354,13.229 0.065,18.261 v 0.065 c 3.418,-5.032 3.483,-13.164 0.129,-18.26 v 0" />
    <path
       inkscape:connector-curvature="0"
       id="path96"
       style="fill:#12110f;fill-opacity:1;fill-rule:evenodd;stroke:none;stroke-width:0.1"
       d="m 296.295,302.241 -0.193,0.065 c 1.226,6.002 7.032,11.742 12.967,12.904 l 0.067,0.064 c -1.162,-6.002 -6.904,-11.808 -12.841,-13.033 v 0" />
    <path
       inkscape:connector-curvature="0"
       id="path98"
       style="fill:#12110f;fill-opacity:1;fill-rule:evenodd;stroke:none;stroke-width:0.1"
       d="m 290.424,316.307 -0.064,0.129 c 5.032,3.356 13.225,3.356 18.258,-0.063 h 0.065 c -5.033,-3.421 -13.226,-3.485 -18.259,-0.066 v 0" />
    <path
       inkscape:connector-curvature="0"
       id="path100"
       style="fill:#12110f;fill-opacity:1;fill-rule:evenodd;stroke:none;stroke-width:0.1"
       d="m 296.166,330.373 0.064,0.129 c 6.002,-1.225 11.744,-7.033 12.839,-12.969 l 0.067,-0.064 c -5.937,1.163 -11.743,6.904 -12.97,12.904 v 0" />
    <path
       inkscape:connector-curvature="0"
       id="path102"
       style="fill:#12110f;fill-opacity:1;fill-rule:evenodd;stroke:none;stroke-width:0.1"
       d="m 309.329,315.662 c 0.387,-0.516 1.161,-0.581 1.612,-0.191 0.516,0.386 0.582,1.093 0.193,1.611 -0.386,0.516 -1.095,0.58 -1.612,0.193 -0.453,-0.386 -0.582,-1.097 -0.193,-1.613 v 0" />
    <path
       inkscape:connector-curvature="0"
       id="path104"
       style="fill:#12110f;fill-opacity:1;fill-rule:evenodd;stroke:none;stroke-width:0.1"
       d="m 488.439,353.475 0.129,0.064 c 3.419,-5.097 3.355,-13.228 -0.064,-18.262 l 0.064,-0.062 c -3.483,5.033 -3.483,13.163 -0.129,18.26 v 0" />
    <path
       inkscape:connector-curvature="0"
       id="path106"
       style="fill:#12110f;fill-opacity:1;fill-rule:evenodd;stroke:none;stroke-width:0.1"
       d="m 502.505,347.73 0.129,-0.062 c -1.162,-6.002 -6.968,-11.746 -12.97,-12.906 v -0.063 c 1.098,5.998 6.84,11.807 12.841,13.031 v 0" />
    <path
       inkscape:connector-curvature="0"
       id="path108"
       style="fill:#12110f;fill-opacity:1;fill-rule:evenodd;stroke:none;stroke-width:0.1"
       d="m 508.376,333.666 0.064,-0.132 c -5.096,-3.351 -13.225,-3.351 -18.258,0.068 h -0.065 c 5.033,3.419 13.162,3.485 18.259,0.064 v 0" />
    <path
       inkscape:connector-curvature="0"
       id="path110"
       style="fill:#12110f;fill-opacity:1;fill-rule:evenodd;stroke:none;stroke-width:0.1"
       d="m 502.634,319.599 -0.065,-0.129 c -6.001,1.224 -11.743,7.033 -12.905,12.97 v 0.063 c 5.938,-1.16 11.743,-6.904 12.97,-12.904 v 0" />
    <path
       inkscape:connector-curvature="0"
       id="path112"
       style="fill:#12110f;fill-opacity:1;fill-rule:evenodd;stroke:none;stroke-width:0.1"
       d="m 488.633,313.728 -0.194,-0.067 c -3.354,5.1 -3.354,13.293 0.065,18.262 v 0.064 c 3.419,-4.968 3.483,-13.165 0.129,-18.259 v 0" />
    <path
       inkscape:connector-curvature="0"
       id="path114"
       style="fill:#12110f;fill-opacity:1;fill-rule:evenodd;stroke:none;stroke-width:0.1"
       d="m 474.502,319.534 -0.129,0.065 c 1.228,5.937 7.033,11.744 12.968,12.841 l 0.064,0.063 c -1.16,-6 -6.901,-11.809 -12.903,-12.969 v 0" />
    <path
       inkscape:connector-curvature="0"
       id="path116"
       style="fill:#12110f;fill-opacity:1;fill-rule:evenodd;stroke:none;stroke-width:0.1"
       d="m 468.632,333.534 -0.065,0.132 c 5.097,3.421 13.29,3.355 18.323,-0.064 h 0.064 c -5.032,-3.419 -13.225,-3.419 -18.322,-0.068 v 0" />
    <path
       inkscape:connector-curvature="0"
       id="path118"
       style="fill:#12110f;fill-opacity:1;fill-rule:evenodd;stroke:none;stroke-width:0.1"
       d="m 474.438,347.602 0.064,0.128 c 5.937,-1.16 11.743,-6.966 12.839,-12.968 h 0.064 c -5.999,1.097 -11.804,6.84 -12.967,12.84 v 0" />
    <path
       inkscape:connector-curvature="0"
       id="path120"
       style="fill:#12110f;fill-opacity:1;fill-rule:evenodd;stroke:none;stroke-width:0.1"
       d="m 487.602,332.89 c 0.386,-0.516 1.095,-0.578 1.611,-0.192 0.516,0.388 0.58,1.097 0.193,1.613 -0.386,0.517 -1.095,0.58 -1.611,0.193 -0.454,-0.387 -0.583,-1.099 -0.193,-1.614 v 0" />
    <path
       inkscape:connector-curvature="0"
       id="path122"
       style="fill:#12110f;fill-opacity:1;fill-rule:evenodd;stroke:none;stroke-width:0.1"
       d="m 434.758,305.531 0.13,0.065 c 3.418,-5.034 3.353,-13.227 -0.066,-18.26 l 0.066,-0.066 c -3.486,5.033 -3.486,13.164 -0.13,18.261 v 0" />
    <path
       inkscape:connector-curvature="0"
       id="path124"
       style="fill:#12110f;fill-opacity:1;fill-rule:evenodd;stroke:none;stroke-width:0.1"
       d="m 448.822,299.789 0.196,-0.066 c -1.227,-5.998 -7.034,-11.743 -12.97,-12.84 l -0.065,-0.063 c 1.098,5.936 6.839,11.742 12.839,12.969 v 0" />
    <path
       inkscape:connector-curvature="0"
       id="path126"
       style="fill:#12110f;fill-opacity:1;fill-rule:evenodd;stroke:none;stroke-width:0.1"
       d="m 454.694,285.787 0.065,-0.193 c -5.097,-3.358 -13.228,-3.358 -18.26,0.129 l -0.064,-0.065 c 5.032,3.421 13.163,3.484 18.259,0.129 v 0" />
    <path
       inkscape:connector-curvature="0"
       id="path128"
       style="fill:#12110f;fill-opacity:1;fill-rule:evenodd;stroke:none;stroke-width:0.1"
       d="m 448.953,271.72 -0.064,-0.194 c -6.002,1.227 -11.743,7.034 -12.841,12.969 l -0.065,0.067 c 5.937,-1.098 11.744,-6.905 12.97,-12.842 v 0" />
    <path
       inkscape:connector-curvature="0"
       id="path130"
       style="fill:#12110f;fill-opacity:1;fill-rule:evenodd;stroke:none;stroke-width:0.1"
       d="m 434.952,265.849 -0.194,-0.067 c -3.356,5.032 -3.356,13.229 0.064,18.264 v 0.062 c 3.419,-5.033 3.484,-13.162 0.13,-18.259 v 0" />
    <path
       inkscape:connector-curvature="0"
       id="path132"
       style="fill:#12110f;fill-opacity:1;fill-rule:evenodd;stroke:none;stroke-width:0.1"
       d="m 420.886,271.591 -0.194,0.064 c 1.225,6.002 7.034,11.744 12.968,12.84 l 0.065,0.067 c -1.161,-5.938 -6.905,-11.747 -12.839,-12.971 v 0" />
    <path
       inkscape:connector-curvature="0"
       id="path134"
       style="fill:#12110f;fill-opacity:1;fill-rule:evenodd;stroke:none;stroke-width:0.1"
       d="m 415.013,285.594 -0.065,0.193 c 5.035,3.355 13.229,3.292 18.261,-0.129 l 0.064,0.065 c -5.032,-3.42 -13.225,-3.487 -18.26,-0.129 v 0" />
    <path
       inkscape:connector-curvature="0"
       id="path136"
       style="fill:#12110f;fill-opacity:1;fill-rule:evenodd;stroke:none;stroke-width:0.1"
       d="m 420.757,299.66 0.064,0.194 c 5.999,-1.225 11.743,-7.034 12.839,-12.971 l 0.065,-0.063 c -5.935,1.096 -11.744,6.905 -12.968,12.84 v 0" />
    <path
       inkscape:connector-curvature="0"
       id="path138"
       style="fill:#12110f;fill-opacity:1;fill-rule:evenodd;stroke:none;stroke-width:0.1"
       d="m 433.918,285.011 c 0.387,-0.516 1.163,-0.645 1.614,-0.258 0.516,0.387 0.645,1.163 0.194,1.614 -0.387,0.516 -1.097,0.645 -1.615,0.258 -0.451,-0.451 -0.58,-1.16 -0.193,-1.614 v 0" />
    <path
       inkscape:connector-curvature="0"
       id="path140"
       style="fill:#12110f;fill-opacity:1;fill-rule:evenodd;stroke:none;stroke-width:0.1"
       d="m 409.014,360.767 h 0.129 c 2.323,-3.487 2.258,-9.097 -0.065,-12.582 v -0.066 c -2.388,3.485 -2.388,9.1 -0.064,12.648 v 0" />
    <path
       inkscape:connector-curvature="0"
       id="path142"
       style="fill:#12110f;fill-opacity:1;fill-rule:evenodd;stroke:none;stroke-width:0.1"
       d="m 418.756,356.765 0.064,-0.062 c -0.838,-4.131 -4.839,-8.067 -8.968,-8.844 v -0.062 c 0.775,4.131 4.71,8.13 8.904,8.968 v 0" />
    <path
       inkscape:connector-curvature="0"
       id="path144"
       style="fill:#12110f;fill-opacity:1;fill-rule:evenodd;stroke:none;stroke-width:0.1"
       d="m 422.758,347.086 0.064,-0.129 c -3.486,-2.32 -9.163,-2.32 -12.584,0.066 h -0.064 c 3.421,2.388 9.097,2.388 12.584,0.063 v 0" />
    <path
       inkscape:connector-curvature="0"
       id="path146"
       style="fill:#12110f;fill-opacity:1;fill-rule:evenodd;stroke:none;stroke-width:0.1"
       d="m 418.82,337.345 -0.064,-0.067 c -4.13,0.84 -8.129,4.842 -8.904,8.97 v 0 c 4.129,-0.776 8.13,-4.775 8.968,-8.903 v 0" />
    <path
       inkscape:connector-curvature="0"
       id="path148"
       style="fill:#12110f;fill-opacity:1;fill-rule:evenodd;stroke:none;stroke-width:0.1"
       d="m 409.143,333.276 h -0.129 c -2.324,3.487 -2.324,9.163 0.064,12.585 v 0.065 c 2.323,-3.487 2.388,-9.099 0.065,-12.65 v 0" />
    <path
       inkscape:connector-curvature="0"
       id="path150"
       style="fill:#12110f;fill-opacity:1;fill-rule:evenodd;stroke:none;stroke-width:0.1"
       d="m 399.4,337.278 -0.129,0.067 c 0.838,4.128 4.839,8.065 8.969,8.903 h 0.065 c -0.776,-4.128 -4.775,-8.13 -8.905,-8.97 v 0" />
    <path
       inkscape:connector-curvature="0"
       id="path152"
       style="fill:#12110f;fill-opacity:1;fill-rule:evenodd;stroke:none;stroke-width:0.1"
       d="m 395.334,346.957 -0.064,0.129 c 3.55,2.325 9.163,2.325 12.648,-0.063 h 0.064 c -3.485,-2.325 -9.098,-2.386 -12.648,-0.066 v 0" />
    <path
       inkscape:connector-curvature="0"
       id="path154"
       style="fill:#12110f;fill-opacity:1;fill-rule:evenodd;stroke:none;stroke-width:0.1"
       d="m 399.335,356.703 v 0.062 c 4.195,-0.774 8.13,-4.775 8.905,-8.906 l 0.065,-0.062 c -4.13,0.774 -8.132,4.775 -8.97,8.906 v 0" />
    <path
       inkscape:connector-curvature="0"
       id="path156"
       style="fill:#12110f;fill-opacity:1;fill-rule:evenodd;stroke:none;stroke-width:0.1"
       d="m 408.434,346.57 c 0.257,-0.386 0.773,-0.451 1.095,-0.193 0.387,0.322 0.451,0.775 0.129,1.162 -0.258,0.32 -0.709,0.387 -1.095,0.129 -0.323,-0.258 -0.387,-0.773 -0.129,-1.098 v 0" />
    <path
       inkscape:connector-curvature="0"
       id="path158"
       style="fill:#12110f;fill-opacity:1;fill-rule:evenodd;stroke:none;stroke-width:0.1"
       d="m 376.43,388.834 0.129,0.066 c 2.322,-3.485 2.322,-9.163 -0.065,-12.648 v 0 c -2.321,3.421 -2.388,9.101 -0.064,12.582 v 0" />
    <path
       inkscape:connector-curvature="0"
       id="path160"
       style="fill:#12110f;fill-opacity:1;fill-rule:evenodd;stroke:none;stroke-width:0.1"
       d="m 386.172,384.899 0.131,-0.064 c -0.84,-4.128 -4.839,-8.13 -8.969,-8.903 h -0.064 c 0.773,4.128 4.774,8.127 8.902,8.967 v 0" />
    <path
       inkscape:connector-curvature="0"
       id="path162"
       style="fill:#12110f;fill-opacity:1;fill-rule:evenodd;stroke:none;stroke-width:0.1"
       d="m 390.237,375.221 v -0.129 c -3.483,-2.323 -9.097,-2.323 -12.581,0.064 h -0.064 c 3.483,2.323 9.098,2.387 12.645,0.065 v 0" />
    <path
       inkscape:connector-curvature="0"
       id="path164"
       style="fill:#12110f;fill-opacity:1;fill-rule:evenodd;stroke:none;stroke-width:0.1"
       d="m 386.239,365.477 -0.067,-0.129 c -4.128,0.838 -8.065,4.839 -8.838,8.969 l -0.064,0.063 c 4.129,-0.774 8.128,-4.776 8.969,-8.903 v 0" />
    <path
       inkscape:connector-curvature="0"
       id="path166"
       style="fill:#12110f;fill-opacity:1;fill-rule:evenodd;stroke:none;stroke-width:0.1"
       d="m 376.559,361.411 -0.129,-0.062 c -2.324,3.547 -2.257,9.161 0.064,12.644 v 0.067 c 2.387,-3.486 2.387,-9.099 0.065,-12.649 v 0" />
    <path
       inkscape:connector-curvature="0"
       id="path168"
       style="fill:#12110f;fill-opacity:1;fill-rule:evenodd;stroke:none;stroke-width:0.1"
       d="m 366.816,365.412 h -0.065 c 0.84,4.131 4.839,8.132 8.969,8.905 v 0.063 c -0.773,-4.128 -4.774,-8.127 -8.904,-8.968 v 0" />
    <path
       inkscape:connector-curvature="0"
       id="path170"
       style="fill:#12110f;fill-opacity:1;fill-rule:evenodd;stroke:none;stroke-width:0.1"
       d="m 362.752,375.092 v 0.064 c 3.483,2.387 9.163,2.323 12.581,0 h 0.065 c -3.483,-2.387 -9.098,-2.387 -12.646,-0.064 v 0" />
    <path
       inkscape:connector-curvature="0"
       id="path172"
       style="fill:#12110f;fill-opacity:1;fill-rule:evenodd;stroke:none;stroke-width:0.1"
       d="m 366.751,384.771 0.065,0.128 c 4.13,-0.84 8.066,-4.839 8.904,-8.967 v 0 c -4.13,0.773 -8.129,4.708 -8.969,8.839 v 0" />
    <path
       inkscape:connector-curvature="0"
       id="path174"
       style="fill:#12110f;fill-opacity:1;fill-rule:evenodd;stroke:none;stroke-width:0.1"
       d="m 375.849,374.64 c 0.322,-0.323 0.776,-0.389 1.163,-0.131 0.322,0.26 0.386,0.776 0.129,1.098 -0.258,0.387 -0.776,0.454 -1.099,0.129 -0.386,-0.257 -0.451,-0.773 -0.193,-1.096 v 0" />
    <path
       inkscape:connector-curvature="0"
       id="path176"
       style="fill:#12110f;fill-opacity:1;fill-rule:evenodd;stroke:none;stroke-width:0.1"
       d="m 330.232,378.062 0.065,0.061 c 1.485,-2.32 1.485,-6.002 -0.065,-8.258 v 0 c -1.482,2.256 -1.546,5.938 0,8.197 v 0" />
    <path
       inkscape:connector-curvature="0"
       id="path178"
       style="fill:#12110f;fill-opacity:1;fill-rule:evenodd;stroke:none;stroke-width:0.1"
       d="m 336.557,375.479 h 0.064 c -0.516,-2.71 -3.161,-5.292 -5.806,-5.807 h -0.066 c 0.517,2.645 3.098,5.291 5.808,5.807 v 0" />
    <path
       inkscape:connector-curvature="0"
       id="path180"
       style="fill:#12110f;fill-opacity:1;fill-rule:evenodd;stroke:none;stroke-width:0.1"
       d="m 339.202,369.156 v -0.067 c -2.259,-1.483 -5.935,-1.483 -8.194,0.067 h -0.064 c 2.258,1.547 5.935,1.547 8.258,0 v 0" />
    <path
       inkscape:connector-curvature="0"
       id="path182"
       style="fill:#12110f;fill-opacity:1;fill-rule:evenodd;stroke:none;stroke-width:0.1"
       d="m 336.621,362.831 -0.064,-0.064 c -2.71,0.581 -5.291,3.161 -5.742,5.874 h -0.066 c 2.711,-0.519 5.292,-3.1 5.872,-5.81 v 0" />
    <path
       inkscape:connector-curvature="0"
       id="path184"
       style="fill:#12110f;fill-opacity:1;fill-rule:evenodd;stroke:none;stroke-width:0.1"
       d="m 330.297,360.187 h -0.065 c -1.546,2.255 -1.482,5.937 0,8.193 v 0.064 c 1.55,-2.258 1.55,-5.935 0.065,-8.257 v 0" />
    <path
       inkscape:connector-curvature="0"
       id="path186"
       style="fill:#12110f;fill-opacity:1;fill-rule:evenodd;stroke:none;stroke-width:0.1"
       d="m 323.976,362.831 h -0.065 c 0.516,2.71 3.161,5.291 5.806,5.81 v 0 c -0.451,-2.713 -3.032,-5.293 -5.741,-5.81 v 0" />
    <path
       inkscape:connector-curvature="0"
       id="path188"
       style="fill:#12110f;fill-opacity:1;fill-rule:evenodd;stroke:none;stroke-width:0.1"
       d="m 321.33,369.089 -0.064,0.067 c 2.323,1.547 5.999,1.547 8.257,0 v 0 c -2.258,-1.55 -5.934,-1.55 -8.193,-0.067 v 0" />
    <path
       inkscape:connector-curvature="0"
       id="path190"
       style="fill:#12110f;fill-opacity:1;fill-rule:evenodd;stroke:none;stroke-width:0.1"
       d="m 323.911,375.414 v 0.065 c 2.71,-0.516 5.29,-3.097 5.806,-5.807 h 0.064 c -2.709,0.515 -5.29,3.097 -5.87,5.742 v 0" />
    <path
       inkscape:connector-curvature="0"
       id="path192"
       style="fill:#12110f;fill-opacity:1;fill-rule:evenodd;stroke:none;stroke-width:0.1"
       d="m 329.846,368.831 c 0.193,-0.258 0.515,-0.258 0.709,-0.061 0.26,0.128 0.26,0.448 0.129,0.706 -0.193,0.196 -0.516,0.26 -0.774,0.067 -0.193,-0.196 -0.258,-0.516 -0.064,-0.712 v 0" />
    <path
       inkscape:connector-curvature="0"
       id="path194"
       style="fill:#12110f;fill-opacity:1;fill-rule:evenodd;stroke:none;stroke-width:0.1"
       d="m 358.623,306.694 h 0.064 c 1.549,-2.258 1.549,-5.937 0,-8.194 v 0 c -1.549,2.192 -1.549,5.869 -0.064,8.194 v 0" />
    <path
       inkscape:connector-curvature="0"
       id="path196"
       style="fill:#12110f;fill-opacity:1;fill-rule:evenodd;stroke:none;stroke-width:0.1"
       d="m 364.946,304.111 0.065,-0.062 c -0.518,-2.646 -3.099,-5.291 -5.808,-5.744 v -0.065 c 0.518,2.71 3.098,5.293 5.743,5.871 v 0" />
    <path
       inkscape:connector-curvature="0"
       id="path198"
       style="fill:#12110f;fill-opacity:1;fill-rule:evenodd;stroke:none;stroke-width:0.1"
       d="m 367.591,297.789 0.065,-0.064 c -2.323,-1.55 -6.002,-1.484 -8.26,0 v 0 c 2.258,1.548 5.937,1.611 8.195,0.064 v 0" />
    <path
       inkscape:connector-curvature="0"
       id="path200"
       style="fill:#12110f;fill-opacity:1;fill-rule:evenodd;stroke:none;stroke-width:0.1"
       d="m 365.011,291.467 v -0.068 c -2.71,0.517 -5.29,3.162 -5.808,5.807 v 0 c 2.645,-0.449 5.29,-3.032 5.808,-5.739 v 0" />
    <path
       inkscape:connector-curvature="0"
       id="path202"
       style="fill:#12110f;fill-opacity:1;fill-rule:evenodd;stroke:none;stroke-width:0.1"
       d="m 358.687,288.819 h -0.064 c -1.485,2.258 -1.485,5.938 0.064,8.196 v 0 c 1.549,-2.258 1.549,-5.938 0,-8.196 v 0" />
    <path
       inkscape:connector-curvature="0"
       id="path204"
       style="fill:#12110f;fill-opacity:1;fill-rule:evenodd;stroke:none;stroke-width:0.1"
       d="m 352.363,291.399 -0.065,0.068 c 0.583,2.645 3.163,5.223 5.873,5.739 v 0.067 c -0.516,-2.712 -3.096,-5.291 -5.808,-5.874 v 0" />
    <path
       inkscape:connector-curvature="0"
       id="path206"
       style="fill:#12110f;fill-opacity:1;fill-rule:evenodd;stroke:none;stroke-width:0.1"
       d="m 349.718,297.725 v 0.064 c 2.258,1.484 5.937,1.484 8.196,-0.064 l 0.064,0.064 c -2.258,-1.548 -5.937,-1.614 -8.26,-0.064 v 0" />
    <path
       inkscape:connector-curvature="0"
       id="path208"
       style="fill:#12110f;fill-opacity:1;fill-rule:evenodd;stroke:none;stroke-width:0.1"
       d="m 352.363,304.049 v 0.062 c 2.712,-0.516 5.292,-3.161 5.808,-5.806 v -0.065 c -2.71,0.518 -5.29,3.097 -5.808,5.809 v 0" />
    <path
       inkscape:connector-curvature="0"
       id="path210"
       style="fill:#12110f;fill-opacity:1;fill-rule:evenodd;stroke:none;stroke-width:0.1"
       d="m 358.236,297.402 c 0.193,-0.196 0.515,-0.257 0.773,-0.067 0.194,0.196 0.258,0.519 0.065,0.712 -0.194,0.258 -0.516,0.258 -0.709,0.129 -0.258,-0.194 -0.258,-0.516 -0.129,-0.774 v 0" />
    <path
       inkscape:connector-curvature="0"
       id="path212"
       style="fill:#12110f;fill-opacity:1;fill-rule:evenodd;stroke:none;stroke-width:0.1"
       d="m 489.148,386.384 0.065,0.062 c 1.549,-2.32 1.549,-5.997 0,-8.194 v -0.062 c -1.547,2.259 -1.547,5.936 -0.065,8.194 v 0" />
    <path
       inkscape:connector-curvature="0"
       id="path214"
       style="fill:#12110f;fill-opacity:1;fill-rule:evenodd;stroke:none;stroke-width:0.1"
       d="m 495.473,383.801 h 0.064 c -0.516,-2.707 -3.097,-5.291 -5.808,-5.807 v 0 c 0.517,2.646 3.098,5.291 5.744,5.807 v 0" />
    <path
       inkscape:connector-curvature="0"
       id="path216"
       style="fill:#12110f;fill-opacity:1;fill-rule:evenodd;stroke:none;stroke-width:0.1"
       d="m 498.117,377.543 0.065,-0.129 c -2.323,-1.482 -6.001,-1.482 -8.258,0.065 v 0 c 2.257,1.547 5.935,1.547 8.193,0.064 v 0" />
    <path
       inkscape:connector-curvature="0"
       id="path218"
       style="fill:#12110f;fill-opacity:1;fill-rule:evenodd;stroke:none;stroke-width:0.1"
       d="m 495.537,371.156 v -0.066 c -2.71,0.582 -5.291,3.161 -5.808,5.873 v 0 c 2.647,-0.516 5.292,-3.099 5.808,-5.807 v 0" />
    <path
       inkscape:connector-curvature="0"
       id="path220"
       style="fill:#12110f;fill-opacity:1;fill-rule:evenodd;stroke:none;stroke-width:0.1"
       d="m 489.213,368.573 -0.065,-0.061 c -1.482,2.256 -1.482,5.934 0.065,8.193 v 0.063 c 1.549,-2.259 1.549,-5.936 0,-8.195 v 0" />
    <path
       inkscape:connector-curvature="0"
       id="path222"
       style="fill:#12110f;fill-opacity:1;fill-rule:evenodd;stroke:none;stroke-width:0.1"
       d="m 482.892,371.156 h -0.065 c 0.58,2.708 3.16,5.291 5.87,5.807 v 0 c -0.515,-2.646 -3.096,-5.291 -5.805,-5.807 v 0" />
    <path
       inkscape:connector-curvature="0"
       id="path224"
       style="fill:#12110f;fill-opacity:1;fill-rule:evenodd;stroke:none;stroke-width:0.1"
       d="m 480.246,377.414 v 0.065 c 2.256,1.547 5.935,1.547 8.193,0 h 0.065 c -2.259,-1.547 -5.938,-1.547 -8.258,-0.065 v 0" />
    <path
       inkscape:connector-curvature="0"
       id="path226"
       style="fill:#12110f;fill-opacity:1;fill-rule:evenodd;stroke:none;stroke-width:0.1"
       d="m 482.892,383.738 v 0.13 c 2.709,-0.583 5.29,-3.161 5.805,-5.874 v 0 c -2.71,0.516 -5.29,3.1 -5.805,5.744 v 0" />
    <path
       inkscape:connector-curvature="0"
       id="path228"
       style="fill:#12110f;fill-opacity:1;fill-rule:evenodd;stroke:none;stroke-width:0.1"
       d="m 488.826,377.156 c 0.129,-0.193 0.451,-0.26 0.709,-0.064 0.194,0.129 0.258,0.451 0.065,0.709 -0.194,0.193 -0.516,0.261 -0.709,0.064 -0.258,-0.129 -0.258,-0.451 -0.065,-0.709 v 0" />
    <path
       inkscape:connector-curvature="0"
       id="path230"
       style="fill:#12110f;fill-opacity:1;fill-rule:evenodd;stroke:none;stroke-width:0.1"
       d="m 480.568,482.271 h 0.065 c 1.482,-2.258 1.482,-5.938 -0.065,-8.196 v 0 c -1.548,2.194 -1.548,5.871 0,8.196 v 0" />
    <path
       inkscape:connector-curvature="0"
       id="path232"
       style="fill:#12110f;fill-opacity:1;fill-rule:evenodd;stroke:none;stroke-width:0.1"
       d="m 486.89,479.688 0.064,-0.063 c -0.58,-2.645 -3.16,-5.292 -5.87,-5.744 v -0.064 c 0.516,2.71 3.097,5.291 5.806,5.871 v 0" />
    <path
       inkscape:connector-curvature="0"
       id="path234"
       style="fill:#12110f;fill-opacity:1;fill-rule:evenodd;stroke:none;stroke-width:0.1"
       d="m 489.535,473.366 v -0.067 c -2.259,-1.547 -5.934,-1.483 -8.193,0 h -0.065 c 2.259,1.552 5.935,1.552 8.258,0.067 v 0" />
    <path
       inkscape:connector-curvature="0"
       id="path236"
       style="fill:#12110f;fill-opacity:1;fill-rule:evenodd;stroke:none;stroke-width:0.1"
       d="m 486.89,467.041 v -0.064 c -2.709,0.516 -5.29,3.161 -5.806,5.806 v 0 c 2.71,-0.449 5.29,-3.032 5.806,-5.742 v 0" />
    <path
       inkscape:connector-curvature="0"
       id="path238"
       style="fill:#12110f;fill-opacity:1;fill-rule:evenodd;stroke:none;stroke-width:0.1"
       d="m 480.633,464.396 h -0.065 c -1.548,2.258 -1.548,5.937 0,8.196 v 0 c 1.547,-2.259 1.547,-5.938 0.065,-8.196 v 0" />
    <path
       inkscape:connector-curvature="0"
       id="path240"
       style="fill:#12110f;fill-opacity:1;fill-rule:evenodd;stroke:none;stroke-width:0.1"
       d="m 474.309,466.977 -0.065,0.064 c 0.516,2.648 3.097,5.227 5.807,5.742 v 0.067 c -0.516,-2.712 -3.097,-5.291 -5.742,-5.873 v 0" />
    <path
       inkscape:connector-curvature="0"
       id="path242"
       style="fill:#12110f;fill-opacity:1;fill-rule:evenodd;stroke:none;stroke-width:0.1"
       d="m 471.664,473.299 -0.064,0.067 c 2.322,1.485 5.999,1.485 8.257,-0.067 v 0.067 c -2.258,-1.55 -5.935,-1.614 -8.193,-0.067 v 0" />
    <path
       inkscape:connector-curvature="0"
       id="path244"
       style="fill:#12110f;fill-opacity:1;fill-rule:evenodd;stroke:none;stroke-width:0.1"
       d="m 474.244,479.625 v 0.063 c 2.71,-0.516 5.291,-3.161 5.807,-5.807 v -0.064 c -2.646,0.516 -5.291,3.097 -5.807,5.808 v 0" />
    <path
       inkscape:connector-curvature="0"
       id="path246"
       style="fill:#12110f;fill-opacity:1;fill-rule:evenodd;stroke:none;stroke-width:0.1"
       d="m 480.18,472.979 c 0.195,-0.196 0.517,-0.258 0.711,-0.067 0.257,0.196 0.257,0.518 0.064,0.712 -0.129,0.257 -0.451,0.257 -0.709,0.128 -0.195,-0.193 -0.26,-0.515 -0.066,-0.773 v 0" />
    <path
       inkscape:connector-curvature="0"
       id="path248"
       style="fill:#12110f;fill-opacity:1;fill-rule:evenodd;stroke:none;stroke-width:0.1"
       d="m 360.752,555.119 h 0.064 c 1.485,-2.257 1.485,-5.935 -0.064,-8.194 v -0.063 c -1.485,2.257 -1.549,5.936 0,8.257 v 0" />
    <path
       inkscape:connector-curvature="0"
       id="path250"
       style="fill:#12110f;fill-opacity:1;fill-rule:evenodd;stroke:none;stroke-width:0.1"
       d="m 367.076,552.54 0.064,-0.066 c -0.517,-2.708 -3.163,-5.291 -5.808,-5.743 l -0.064,-0.064 c 0.515,2.712 3.096,5.291 5.808,5.873 v 0" />
    <path
       inkscape:connector-curvature="0"
       id="path252"
       style="fill:#12110f;fill-opacity:1;fill-rule:evenodd;stroke:none;stroke-width:0.1"
       d="m 369.721,546.216 v -0.065 c -2.259,-1.547 -5.937,-1.547 -8.196,0 h -0.064 c 2.258,1.547 5.937,1.547 8.26,0.065 v 0" />
    <path
       inkscape:connector-curvature="0"
       id="path254"
       style="fill:#12110f;fill-opacity:1;fill-rule:evenodd;stroke:none;stroke-width:0.1"
       d="m 367.14,539.891 -0.064,-0.062 c -2.647,0.516 -5.293,3.161 -5.744,5.806 h -0.064 c 2.709,-0.453 5.29,-3.031 5.872,-5.744 v 0" />
    <path
       inkscape:connector-curvature="0"
       id="path256"
       style="fill:#12110f;fill-opacity:1;fill-rule:evenodd;stroke:none;stroke-width:0.1"
       d="m 360.816,537.246 -0.064,-0.062 c -1.549,2.32 -1.485,5.997 0,8.256 v 0 c 1.549,-2.259 1.549,-5.936 0.064,-8.194 v 0" />
    <path
       inkscape:connector-curvature="0"
       id="path258"
       style="fill:#12110f;fill-opacity:1;fill-rule:evenodd;stroke:none;stroke-width:0.1"
       d="m 354.493,539.829 h -0.065 c 0.518,2.708 3.163,5.291 5.808,5.806 v 0.065 c -0.451,-2.71 -3.034,-5.355 -5.743,-5.871 v 0" />
    <path
       inkscape:connector-curvature="0"
       id="path260"
       style="fill:#12110f;fill-opacity:1;fill-rule:evenodd;stroke:none;stroke-width:0.1"
       d="m 351.847,546.151 -0.064,0.065 c 2.322,1.482 6.002,1.482 8.26,-0.065 v 0 c -2.258,-1.485 -5.938,-1.547 -8.196,0 v 0" />
    <path
       inkscape:connector-curvature="0"
       id="path262"
       style="fill:#12110f;fill-opacity:1;fill-rule:evenodd;stroke:none;stroke-width:0.1"
       d="m 354.428,552.474 0.065,0.066 c 2.645,-0.516 5.228,-3.161 5.743,-5.873 h 0.065 c -2.71,0.516 -5.291,3.099 -5.873,5.807 v 0" />
    <path
       inkscape:connector-curvature="0"
       id="path264"
       style="fill:#12110f;fill-opacity:1;fill-rule:evenodd;stroke:none;stroke-width:0.1"
       d="m 360.365,545.829 c 0.194,-0.194 0.516,-0.26 0.709,-0.065 0.258,0.194 0.258,0.516 0.129,0.71 -0.193,0.257 -0.515,0.257 -0.773,0.129 -0.194,-0.194 -0.258,-0.516 -0.065,-0.774 v 0" />
    <path
       inkscape:connector-curvature="0"
       id="path266"
       style="fill:#12110f;fill-opacity:1;fill-rule:evenodd;stroke:none;stroke-width:0.1"
       d="m 355.139,527.634 0.065,0.062 c 2.387,-3.484 2.322,-9.163 0,-12.582 v -0.065 c -2.388,3.484 -2.388,9.099 -0.065,12.585 v 0" />
    <path
       inkscape:connector-curvature="0"
       id="path268"
       style="fill:#12110f;fill-opacity:1;fill-rule:evenodd;stroke:none;stroke-width:0.1"
       d="m 364.817,523.694 0.129,-0.062 c -0.84,-4.13 -4.839,-8.132 -8.968,-8.905 v 0 c 0.773,4.13 4.71,8.131 8.839,8.967 v 0" />
    <path
       inkscape:connector-curvature="0"
       id="path270"
       style="fill:#12110f;fill-opacity:1;fill-rule:evenodd;stroke:none;stroke-width:0.1"
       d="m 368.881,514.016 0.064,-0.129 c -3.483,-2.321 -9.16,-2.321 -12.645,0.066 v 0 c 3.421,2.321 9.097,2.388 12.581,0.063 v 0" />
    <path
       inkscape:connector-curvature="0"
       id="path272"
       style="fill:#12110f;fill-opacity:1;fill-rule:evenodd;stroke:none;stroke-width:0.1"
       d="m 364.946,504.274 -0.064,-0.128 c -4.13,0.837 -8.131,4.836 -8.904,8.967 v 0.067 c 4.065,-0.776 8.128,-4.775 8.968,-8.906 v 0" />
    <path
       inkscape:connector-curvature="0"
       id="path274"
       style="fill:#12110f;fill-opacity:1;fill-rule:evenodd;stroke:none;stroke-width:0.1"
       d="m 355.204,500.208 -0.065,-0.064 c -2.323,3.548 -2.323,9.163 0.065,12.647 l -0.065,0.064 c 2.387,-3.486 2.452,-9.096 0.065,-12.647 v 0" />
    <path
       inkscape:connector-curvature="0"
       id="path276"
       style="fill:#12110f;fill-opacity:1;fill-rule:evenodd;stroke:none;stroke-width:0.1"
       d="m 345.525,504.208 h -0.129 c 0.839,4.197 4.84,8.131 8.967,8.905 v 0.067 c -0.773,-4.131 -4.71,-8.132 -8.838,-8.972 v 0" />
    <path
       inkscape:connector-curvature="0"
       id="path278"
       style="fill:#12110f;fill-opacity:1;fill-rule:evenodd;stroke:none;stroke-width:0.1"
       d="m 341.46,513.887 -0.064,0.129 c 3.547,2.325 9.162,2.258 12.645,-0.063 h 0.064 c -3.482,-2.387 -9.162,-2.387 -12.645,-0.066 v 0" />
    <path
       inkscape:connector-curvature="0"
       id="path280"
       style="fill:#12110f;fill-opacity:1;fill-rule:evenodd;stroke:none;stroke-width:0.1"
       d="m 345.461,523.632 v 0.062 c 4.128,-0.836 8.129,-4.837 8.902,-8.967 h 0.065 c -4.128,0.773 -8.129,4.71 -8.967,8.905 v 0" />
    <path
       inkscape:connector-curvature="0"
       id="path282"
       style="fill:#12110f;fill-opacity:1;fill-rule:evenodd;stroke:none;stroke-width:0.1"
       d="m 354.557,513.437 c 0.258,-0.324 0.776,-0.386 1.098,-0.128 0.387,0.257 0.451,0.773 0.129,1.095 -0.258,0.388 -0.774,0.452 -1.098,0.194 -0.323,-0.325 -0.387,-0.774 -0.129,-1.161 v 0" />
    <path
       inkscape:connector-curvature="0"
       id="path284"
       style="fill:#12110f;fill-opacity:1;fill-rule:evenodd;stroke:none;stroke-width:0.1"
       d="m 453.146,505.048 0.064,0.064 c 1.549,-2.323 1.549,-6 0,-8.196 v -0.062 c -1.547,2.258 -1.547,5.935 -0.064,8.194 v 0" />
    <path
       inkscape:connector-curvature="0"
       id="path286"
       style="fill:#12110f;fill-opacity:1;fill-rule:evenodd;stroke:none;stroke-width:0.1"
       d="m 459.47,502.467 h 0.064 c -0.515,-2.71 -3.096,-5.293 -5.806,-5.809 v 0 c 0.515,2.646 3.096,5.291 5.742,5.809 v 0" />
    <path
       inkscape:connector-curvature="0"
       id="path288"
       style="fill:#12110f;fill-opacity:1;fill-rule:evenodd;stroke:none;stroke-width:0.1"
       d="m 462.114,496.209 0.065,-0.131 c -2.323,-1.483 -5.999,-1.483 -8.258,0.065 v 0 c 2.259,1.549 5.935,1.549 8.193,0.066 v 0" />
    <path
       inkscape:connector-curvature="0"
       id="path290"
       style="fill:#12110f;fill-opacity:1;fill-rule:evenodd;stroke:none;stroke-width:0.1"
       d="m 459.534,489.82 v -0.066 c -2.71,0.582 -5.291,3.163 -5.806,5.873 v 0 c 2.645,-0.516 5.291,-3.099 5.806,-5.807 v 0" />
    <path
       inkscape:connector-curvature="0"
       id="path292"
       style="fill:#12110f;fill-opacity:1;fill-rule:evenodd;stroke:none;stroke-width:0.1"
       d="m 453.21,487.237 -0.064,-0.062 c -1.483,2.259 -1.483,5.935 0.064,8.194 v 0.065 c 1.549,-2.259 1.549,-5.938 0,-8.197 v 0" />
    <path
       inkscape:connector-curvature="0"
       id="path294"
       style="fill:#12110f;fill-opacity:1;fill-rule:evenodd;stroke:none;stroke-width:0.1"
       d="m 446.889,489.82 h -0.065 c 0.58,2.708 3.16,5.291 5.87,5.807 v 0 c -0.515,-2.646 -3.096,-5.291 -5.805,-5.807 v 0" />
    <path
       inkscape:connector-curvature="0"
       id="path296"
       style="fill:#12110f;fill-opacity:1;fill-rule:evenodd;stroke:none;stroke-width:0.1"
       d="m 444.243,496.078 v 0.065 c 2.259,1.549 5.935,1.549 8.194,0 h 0.064 c -2.259,-1.548 -5.935,-1.548 -8.258,-0.065 v 0" />
    <path
       inkscape:connector-curvature="0"
       id="path298"
       style="fill:#12110f;fill-opacity:1;fill-rule:evenodd;stroke:none;stroke-width:0.1"
       d="m 446.889,502.402 v 0.129 c 2.709,-0.582 5.29,-3.161 5.805,-5.873 v 0 c -2.71,0.516 -5.29,3.099 -5.805,5.744 v 0" />
    <path
       inkscape:connector-curvature="0"
       id="path300"
       style="fill:#12110f;fill-opacity:1;fill-rule:evenodd;stroke:none;stroke-width:0.1"
       d="m 452.823,495.82 c 0.129,-0.193 0.451,-0.258 0.709,-0.064 0.196,0.129 0.26,0.453 0.065,0.711 -0.194,0.191 -0.516,0.258 -0.709,0.062 -0.258,-0.129 -0.258,-0.451 -0.065,-0.709 v 0" />
    <path
       inkscape:connector-curvature="0"
       id="path302"
       style="fill:#12110f;fill-opacity:1;fill-rule:evenodd;stroke:none;stroke-width:0.1"
       d="m 273.713,344.054 h 0.064 c 1.548,-2.259 1.483,-5.936 -0.064,-8.195 l 0.064,-0.066 c -1.548,2.259 -1.613,5.937 -0.064,8.261 v 0" />
    <path
       inkscape:connector-curvature="0"
       id="path304"
       style="fill:#12110f;fill-opacity:1;fill-rule:evenodd;stroke:none;stroke-width:0.1"
       d="m 280.035,341.408 h 0.064 c -0.516,-2.71 -3.161,-5.291 -5.806,-5.806 h -0.064 c 0.516,2.708 3.096,5.291 5.806,5.806 v 0" />
    <path
       inkscape:connector-curvature="0"
       id="path306"
       style="fill:#12110f;fill-opacity:1;fill-rule:evenodd;stroke:none;stroke-width:0.1"
       d="m 282.682,335.148 v -0.062 c -2.258,-1.552 -5.937,-1.552 -8.195,0 v 0 c 2.194,1.548 5.872,1.548 8.195,0.062 v 0" />
    <path
       inkscape:connector-curvature="0"
       id="path308"
       style="fill:#12110f;fill-opacity:1;fill-rule:evenodd;stroke:none;stroke-width:0.1"
       d="m 280.099,328.826 -0.064,-0.064 c -2.645,0.515 -5.29,3.096 -5.742,5.806 h -0.064 c 2.709,-0.515 5.29,-3.096 5.87,-5.742 v 0" />
    <path
       inkscape:connector-curvature="0"
       id="path310"
       style="fill:#12110f;fill-opacity:1;fill-rule:evenodd;stroke:none;stroke-width:0.1"
       d="m 273.777,326.181 -0.064,-0.067 c -1.549,2.325 -1.484,6.002 0,8.261 v 0 c 1.547,-2.259 1.612,-5.936 0.064,-8.194 v 0" />
    <path
       inkscape:connector-curvature="0"
       id="path312"
       style="fill:#12110f;fill-opacity:1;fill-rule:evenodd;stroke:none;stroke-width:0.1"
       d="m 267.454,328.762 h -0.065 c 0.516,2.71 3.163,5.291 5.808,5.806 h 0.065 c -0.518,-2.645 -3.099,-5.291 -5.808,-5.806 v 0" />
    <path
       inkscape:connector-curvature="0"
       id="path314"
       style="fill:#12110f;fill-opacity:1;fill-rule:evenodd;stroke:none;stroke-width:0.1"
       d="m 264.809,335.086 v 0.062 c 2.258,1.486 5.937,1.486 8.195,-0.062 v 0 c -2.258,-1.552 -5.937,-1.552 -8.195,0 v 0" />
    <path
       inkscape:connector-curvature="0"
       id="path316"
       style="fill:#12110f;fill-opacity:1;fill-rule:evenodd;stroke:none;stroke-width:0.1"
       d="m 267.389,341.408 0.065,0.065 c 2.645,-0.58 5.226,-3.163 5.743,-5.871 h 0.065 c -2.71,0.515 -5.293,3.096 -5.873,5.806 v 0" />
    <path
       inkscape:connector-curvature="0"
       id="path318"
       style="fill:#12110f;fill-opacity:1;fill-rule:evenodd;stroke:none;stroke-width:0.1"
       d="m 273.326,334.762 c 0.194,-0.194 0.516,-0.258 0.71,-0.063 0.257,0.192 0.257,0.516 0.129,0.707 -0.194,0.258 -0.517,0.258 -0.71,0.067 -0.258,-0.129 -0.322,-0.453 -0.129,-0.711 v 0" />
    <path
       inkscape:connector-curvature="0"
       id="path320"
       style="fill:#12110f;fill-opacity:1;fill-rule:evenodd;stroke:none;stroke-width:0.1"
       d="m 299.391,408.646 0.067,0.064 c 1.482,-2.259 1.482,-5.938 -0.067,-8.196 v -0.063 c -1.547,2.259 -1.547,5.936 0,8.195 v 0" />
    <path
       inkscape:connector-curvature="0"
       id="path322"
       style="fill:#12110f;fill-opacity:1;fill-rule:evenodd;stroke:none;stroke-width:0.1"
       d="m 305.715,406.064 h 0.064 c -0.58,-2.71 -3.16,-5.293 -5.87,-5.808 v 0 c 0.516,2.645 3.096,5.29 5.806,5.808 v 0" />
    <path
       inkscape:connector-curvature="0"
       id="path324"
       style="fill:#12110f;fill-opacity:1;fill-rule:evenodd;stroke:none;stroke-width:0.1"
       d="m 308.36,399.807 v -0.067 c -2.258,-1.548 -5.935,-1.548 -8.193,0 h -0.064 c 2.258,1.55 5.934,1.55 8.257,0.067 v 0" />
    <path
       inkscape:connector-curvature="0"
       id="path326"
       style="fill:#12110f;fill-opacity:1;fill-rule:evenodd;stroke:none;stroke-width:0.1"
       d="m 305.715,393.48 v -0.129 c -2.71,0.583 -5.29,3.164 -5.806,5.873 v 0 c 2.645,-0.516 5.29,-3.099 5.806,-5.744 v 0" />
    <path
       inkscape:connector-curvature="0"
       id="path328"
       style="fill:#12110f;fill-opacity:1;fill-rule:evenodd;stroke:none;stroke-width:0.1"
       d="m 299.458,390.835 -0.067,-0.063 c -1.547,2.321 -1.547,6 0,8.195 v 0.064 c 1.549,-2.259 1.549,-5.938 0.067,-8.196 v 0" />
    <path
       inkscape:connector-curvature="0"
       id="path330"
       style="fill:#12110f;fill-opacity:1;fill-rule:evenodd;stroke:none;stroke-width:0.1"
       d="m 293.134,393.418 h -0.065 c 0.516,2.707 3.097,5.29 5.806,5.806 v 0 c -0.515,-2.645 -3.096,-5.29 -5.741,-5.806 v 0" />
    <path
       inkscape:connector-curvature="0"
       id="path332"
       style="fill:#12110f;fill-opacity:1;fill-rule:evenodd;stroke:none;stroke-width:0.1"
       d="m 290.489,399.675 -0.065,0.132 c 2.323,1.483 6,1.483 8.258,-0.067 v 0 c -2.258,-1.548 -5.935,-1.548 -8.193,-0.065 v 0" />
    <path
       inkscape:connector-curvature="0"
       id="path334"
       style="fill:#12110f;fill-opacity:1;fill-rule:evenodd;stroke:none;stroke-width:0.1"
       d="m 293.069,406.064 v 0.065 c 2.71,-0.583 5.291,-3.161 5.806,-5.873 v 0 c -2.645,0.515 -5.29,3.098 -5.806,5.808 v 0" />
    <path
       inkscape:connector-curvature="0"
       id="path336"
       style="fill:#12110f;fill-opacity:1;fill-rule:evenodd;stroke:none;stroke-width:0.1"
       d="m 299.004,399.417 c 0.194,-0.193 0.518,-0.257 0.712,-0.064 0.258,0.129 0.258,0.454 0.064,0.711 -0.129,0.192 -0.453,0.258 -0.711,0.063 -0.194,-0.129 -0.258,-0.452 -0.065,-0.71 v 0" />
    <path
       inkscape:connector-curvature="0"
       id="path338"
       style="fill:#12110f;fill-opacity:1;fill-rule:evenodd;stroke:none;stroke-width:0.1"
       d="m 320.619,466.139 h 0.065 c 1.549,-2.259 1.549,-5.938 0,-8.197 v -0.062 c -1.548,2.259 -1.548,5.935 -0.065,8.259 v 0" />
    <path
       inkscape:connector-curvature="0"
       id="path340"
       style="fill:#12110f;fill-opacity:1;fill-rule:evenodd;stroke:none;stroke-width:0.1"
       d="m 326.943,463.558 0.064,-0.067 c -0.515,-2.707 -3.096,-5.291 -5.806,-5.74 v -0.066 c 0.516,2.711 3.097,5.291 5.742,5.873 v 0" />
    <path
       inkscape:connector-curvature="0"
       id="path342"
       style="fill:#12110f;fill-opacity:1;fill-rule:evenodd;stroke:none;stroke-width:0.1"
       d="m 329.588,457.233 0.064,-0.064 c -2.322,-1.547 -5.999,-1.547 -8.257,0 v 0 c 2.258,1.547 5.935,1.547 8.193,0.064 v 0" />
    <path
       inkscape:connector-curvature="0"
       id="path344"
       style="fill:#12110f;fill-opacity:1;fill-rule:evenodd;stroke:none;stroke-width:0.1"
       d="m 327.007,450.909 v -0.062 c -2.709,0.515 -5.29,3.161 -5.806,5.806 v 0 c 2.646,-0.453 5.291,-3.032 5.806,-5.744 v 0" />
    <path
       inkscape:connector-curvature="0"
       id="path346"
       style="fill:#12110f;fill-opacity:1;fill-rule:evenodd;stroke:none;stroke-width:0.1"
       d="m 320.684,448.264 -0.065,-0.063 c -1.483,2.321 -1.483,6 0.065,8.257 v 0 c 1.549,-2.257 1.549,-5.936 0,-8.194 v 0" />
    <path
       inkscape:connector-curvature="0"
       id="path348"
       style="fill:#12110f;fill-opacity:1;fill-rule:evenodd;stroke:none;stroke-width:0.1"
       d="m 314.362,450.847 h -0.065 c 0.58,2.707 3.161,5.291 5.871,5.806 v 0.065 c -0.516,-2.71 -3.097,-5.356 -5.806,-5.871 v 0" />
    <path
       inkscape:connector-curvature="0"
       id="path350"
       style="fill:#12110f;fill-opacity:1;fill-rule:evenodd;stroke:none;stroke-width:0.1"
       d="m 311.717,457.169 v 0.064 c 2.258,1.483 5.934,1.483 8.193,-0.064 h 0.065 c -2.259,-1.485 -5.935,-1.547 -8.258,0 v 0" />
    <path
       inkscape:connector-curvature="0"
       id="path352"
       style="fill:#12110f;fill-opacity:1;fill-rule:evenodd;stroke:none;stroke-width:0.1"
       d="m 314.362,463.491 v 0.067 c 2.709,-0.582 5.29,-3.162 5.806,-5.873 v 0 c -2.71,0.515 -5.291,3.099 -5.806,5.806 v 0" />
    <path
       inkscape:connector-curvature="0"
       id="path354"
       style="fill:#12110f;fill-opacity:1;fill-rule:evenodd;stroke:none;stroke-width:0.1"
       d="m 320.232,456.847 c 0.194,-0.194 0.516,-0.258 0.774,-0.065 0.195,0.194 0.26,0.516 0.064,0.709 -0.193,0.26 -0.515,0.26 -0.709,0.132 -0.257,-0.196 -0.257,-0.519 -0.129,-0.776 v 0" />
    <path
       inkscape:connector-curvature="0"
       id="path356"
       style="fill:#12110f;fill-opacity:1;fill-rule:evenodd;stroke:none;stroke-width:0.1"
       d="m 406.046,409.161 0.064,0.065 c 1.548,-2.324 1.484,-6 -0.064,-8.259 h 0.064 c -1.548,2.259 -1.613,5.935 -0.064,8.194 v 0" />
    <path
       inkscape:connector-curvature="0"
       id="path358"
       style="fill:#12110f;fill-opacity:1;fill-rule:evenodd;stroke:none;stroke-width:0.1"
       d="m 412.368,406.58 0.065,-0.064 c -0.516,-2.646 -3.162,-5.226 -5.807,-5.745 l -0.064,-0.062 c 0.515,2.708 3.096,5.291 5.806,5.871 v 0" />
    <path
       inkscape:connector-curvature="0"
       id="path360"
       style="fill:#12110f;fill-opacity:1;fill-rule:evenodd;stroke:none;stroke-width:0.1"
       d="m 415.013,400.256 v -0.063 c -2.256,-1.485 -5.935,-1.485 -8.194,0.063 v 0 c 2.195,1.485 5.871,1.549 8.194,0 v 0" />
    <path
       inkscape:connector-curvature="0"
       id="path362"
       style="fill:#12110f;fill-opacity:1;fill-rule:evenodd;stroke:none;stroke-width:0.1"
       d="m 412.433,393.934 -0.065,-0.065 c -2.645,0.516 -5.291,3.161 -5.742,5.806 l -0.064,0.065 c 2.709,-0.516 5.291,-3.096 5.871,-5.806 v 0" />
    <path
       inkscape:connector-curvature="0"
       id="path364"
       style="fill:#12110f;fill-opacity:1;fill-rule:evenodd;stroke:none;stroke-width:0.1"
       d="m 406.11,391.288 h -0.064 c -1.549,2.259 -1.484,5.936 0,8.194 v 0.064 c 1.548,-2.258 1.612,-5.937 0.064,-8.258 v 0" />
    <path
       inkscape:connector-curvature="0"
       id="path366"
       style="fill:#12110f;fill-opacity:1;fill-rule:evenodd;stroke:none;stroke-width:0.1"
       d="m 399.787,393.869 -0.065,0.065 c 0.516,2.645 3.161,5.29 5.808,5.741 v 0.065 c -0.453,-2.71 -3.034,-5.291 -5.743,-5.871 v 0" />
    <path
       inkscape:connector-curvature="0"
       id="path368"
       style="fill:#12110f;fill-opacity:1;fill-rule:evenodd;stroke:none;stroke-width:0.1"
       d="m 397.142,400.193 v 0.063 c 2.258,1.549 5.934,1.485 8.193,0 v 0 c -2.259,-1.548 -5.935,-1.548 -8.193,-0.063 v 0" />
    <path
       inkscape:connector-curvature="0"
       id="path370"
       style="fill:#12110f;fill-opacity:1;fill-rule:evenodd;stroke:none;stroke-width:0.1"
       d="m 399.722,406.516 0.065,0.064 c 2.645,-0.516 5.226,-3.163 5.743,-5.809 h 0.065 c -2.712,0.454 -5.292,3.035 -5.873,5.745 v 0" />
    <path
       inkscape:connector-curvature="0"
       id="path372"
       style="fill:#12110f;fill-opacity:1;fill-rule:evenodd;stroke:none;stroke-width:0.1"
       d="m 405.659,399.936 c 0.194,-0.261 0.516,-0.261 0.709,-0.129 0.258,0.191 0.258,0.515 0.129,0.773 -0.193,0.191 -0.516,0.258 -0.709,0.063 -0.258,-0.192 -0.324,-0.516 -0.129,-0.707 v 0" />
    <path
       inkscape:connector-curvature="0"
       id="path374"
       style="fill:#12110f;fill-opacity:1;fill-rule:evenodd;stroke:none;stroke-width:0.1"
       d="m 433.08,427.874 h 0.129 c 1.484,-2.258 1.484,-5.935 -0.064,-8.194 v -0.066 c -1.549,2.258 -1.549,5.937 -0.065,8.26 v 0" />
    <path
       inkscape:connector-curvature="0"
       id="path376"
       style="fill:#12110f;fill-opacity:1;fill-rule:evenodd;stroke:none;stroke-width:0.1"
       d="m 439.469,425.293 0.064,-0.064 c -0.583,-2.712 -3.163,-5.291 -5.873,-5.807 v 0 c 0.516,2.708 3.097,5.291 5.809,5.871 v 0" />
    <path
       inkscape:connector-curvature="0"
       id="path378"
       style="fill:#12110f;fill-opacity:1;fill-rule:evenodd;stroke:none;stroke-width:0.1"
       d="m 442.049,418.969 0.064,-0.065 c -2.258,-1.549 -5.936,-1.549 -8.195,0 h -0.064 c 2.258,1.55 5.937,1.55 8.195,0.065 v 0" />
    <path
       inkscape:connector-curvature="0"
       id="path380"
       style="fill:#12110f;fill-opacity:1;fill-rule:evenodd;stroke:none;stroke-width:0.1"
       d="m 439.469,412.646 v -0.066 c -2.712,0.516 -5.293,3.163 -5.809,5.809 v 0 c 2.646,-0.452 5.29,-3.035 5.809,-5.743 v 0" />
    <path
       inkscape:connector-curvature="0"
       id="path382"
       style="fill:#12110f;fill-opacity:1;fill-rule:evenodd;stroke:none;stroke-width:0.1"
       d="m 433.209,410.001 -0.064,-0.066 c -1.549,2.325 -1.549,6.002 0,8.26 v 0 c 1.548,-2.258 1.548,-5.935 0.064,-8.194 v 0" />
    <path
       inkscape:connector-curvature="0"
       id="path384"
       style="fill:#12110f;fill-opacity:1;fill-rule:evenodd;stroke:none;stroke-width:0.1"
       d="m 426.885,412.58 h -0.129 c 0.583,2.712 3.163,5.291 5.873,5.809 v 0.064 c -0.516,-2.71 -3.099,-5.357 -5.744,-5.873 v 0" />
    <path
       inkscape:connector-curvature="0"
       id="path386"
       style="fill:#12110f;fill-opacity:1;fill-rule:evenodd;stroke:none;stroke-width:0.1"
       d="m 424.24,418.904 -0.064,0.065 c 2.322,1.485 6.001,1.485 8.195,-0.065 h 0.065 c -2.259,-1.549 -5.938,-1.549 -8.196,0 v 0" />
    <path
       inkscape:connector-curvature="0"
       id="path388"
       style="fill:#12110f;fill-opacity:1;fill-rule:evenodd;stroke:none;stroke-width:0.1"
       d="m 426.82,425.229 v 0.064 c 2.71,-0.58 5.293,-3.163 5.809,-5.871 v 0 c -2.646,0.516 -5.29,3.095 -5.809,5.807 v 0" />
    <path
       inkscape:connector-curvature="0"
       id="path390"
       style="fill:#12110f;fill-opacity:1;fill-rule:evenodd;stroke:none;stroke-width:0.1"
       d="m 432.758,418.582 c 0.129,-0.193 0.451,-0.258 0.709,-0.064 0.193,0.193 0.258,0.518 0.064,0.709 -0.129,0.257 -0.451,0.257 -0.709,0.128 -0.193,-0.19 -0.258,-0.515 -0.064,-0.773 v 0" />
    <path
       inkscape:connector-curvature="0"
       id="path392"
       style="fill:#12110f;fill-opacity:1;fill-rule:evenodd;stroke:none;stroke-width:0.1"
       d="m 566.058,281.205 0.064,0.065 c 1.55,-2.324 1.55,-6 0,-8.259 v 0 c -1.547,2.259 -1.547,5.935 -0.064,8.194 v 0" />
    <path
       inkscape:connector-curvature="0"
       id="path394"
       style="fill:#12110f;fill-opacity:1;fill-rule:evenodd;stroke:none;stroke-width:0.1"
       d="m 572.382,278.624 h 0.064 c -0.515,-2.71 -3.098,-5.29 -5.808,-5.809 v -0.062 c 0.518,2.708 3.098,5.291 5.744,5.871 v 0" />
    <path
       inkscape:connector-curvature="0"
       id="path396"
       style="fill:#12110f;fill-opacity:1;fill-rule:evenodd;stroke:none;stroke-width:0.1"
       d="m 575.026,272.3 0.065,-0.063 c -2.322,-1.484 -6.001,-1.484 -8.26,0.063 v 0 c 2.259,1.485 5.938,1.55 8.195,0 v 0" />
    <path
       inkscape:connector-curvature="0"
       id="path398"
       style="fill:#12110f;fill-opacity:1;fill-rule:evenodd;stroke:none;stroke-width:0.1"
       d="m 572.446,265.978 v -0.067 c -2.71,0.518 -5.29,3.163 -5.808,5.809 v 0.064 c 2.645,-0.515 5.293,-3.097 5.808,-5.806 v 0" />
    <path
       inkscape:connector-curvature="0"
       id="path400"
       style="fill:#12110f;fill-opacity:1;fill-rule:evenodd;stroke:none;stroke-width:0.1"
       d="m 566.122,263.332 h -0.064 c -1.483,2.259 -1.483,5.936 0.064,8.194 v 0.065 c 1.55,-2.259 1.55,-5.938 0,-8.259 v 0" />
    <path
       inkscape:connector-curvature="0"
       id="path402"
       style="fill:#12110f;fill-opacity:1;fill-rule:evenodd;stroke:none;stroke-width:0.1"
       d="m 559.801,265.911 -0.065,0.067 c 0.58,2.709 3.16,5.291 5.87,5.742 v 0.064 c -0.515,-2.71 -3.096,-5.291 -5.805,-5.873 v 0" />
    <path
       inkscape:connector-curvature="0"
       id="path404"
       style="fill:#12110f;fill-opacity:1;fill-rule:evenodd;stroke:none;stroke-width:0.1"
       d="m 557.153,272.237 v 0.063 c 2.258,1.55 5.937,1.485 8.196,0 h 0.064 c -2.258,-1.547 -5.937,-1.547 -8.26,-0.063 v 0" />
    <path
       inkscape:connector-curvature="0"
       id="path406"
       style="fill:#12110f;fill-opacity:1;fill-rule:evenodd;stroke:none;stroke-width:0.1"
       d="m 559.736,278.56 0.065,0.064 c 2.709,-0.518 5.29,-3.163 5.805,-5.809 v 0 c -2.71,0.455 -5.29,3.035 -5.87,5.745 v 0" />
    <path
       inkscape:connector-curvature="0"
       id="path408"
       style="fill:#12110f;fill-opacity:1;fill-rule:evenodd;stroke:none;stroke-width:0.1"
       d="m 565.671,271.978 c 0.193,-0.258 0.516,-0.258 0.773,-0.129 0.194,0.193 0.258,0.517 0.065,0.775 -0.194,0.191 -0.516,0.258 -0.709,0.063 -0.258,-0.192 -0.258,-0.516 -0.129,-0.709 v 0" />
    <path
       inkscape:connector-curvature="0"
       id="path410"
       style="fill:#12110f;fill-opacity:1;fill-rule:evenodd;stroke:none;stroke-width:0.1"
       d="m 339.846,284.366 0.065,0.067 c 1.485,-2.326 1.485,-6.002 -0.065,-8.261 v 0 c -1.547,2.259 -1.547,5.935 0,8.194 v 0" />
    <path
       inkscape:connector-curvature="0"
       id="path412"
       style="fill:#12110f;fill-opacity:1;fill-rule:evenodd;stroke:none;stroke-width:0.1"
       d="m 346.17,281.787 0.065,-0.066 c -0.581,-2.646 -3.161,-5.227 -5.873,-5.742 v -0.065 c 0.518,2.71 3.098,5.291 5.808,5.873 v 0" />
    <path
       inkscape:connector-curvature="0"
       id="path414"
       style="fill:#12110f;fill-opacity:1;fill-rule:evenodd;stroke:none;stroke-width:0.1"
       d="m 348.815,275.461 v -0.063 c -2.258,-1.484 -5.935,-1.484 -8.193,0.063 h -0.064 c 2.256,1.484 5.935,1.552 8.257,0 v 0" />
    <path
       inkscape:connector-curvature="0"
       id="path416"
       style="fill:#12110f;fill-opacity:1;fill-rule:evenodd;stroke:none;stroke-width:0.1"
       d="m 346.17,269.139 v -0.065 c -2.71,0.518 -5.29,3.163 -5.808,5.809 v 0.062 c 2.712,-0.515 5.292,-3.096 5.808,-5.806 v 0" />
    <path
       inkscape:connector-curvature="0"
       id="path418"
       style="fill:#12110f;fill-opacity:1;fill-rule:evenodd;stroke:none;stroke-width:0.1"
       d="m 339.911,266.493 h -0.065 c -1.547,2.259 -1.547,5.936 0,8.194 v 0.067 c 1.55,-2.259 1.55,-5.938 0.065,-8.261 v 0" />
    <path
       inkscape:connector-curvature="0"
       id="path420"
       style="fill:#12110f;fill-opacity:1;fill-rule:evenodd;stroke:none;stroke-width:0.1"
       d="m 333.589,269.074 -0.065,0.065 c 0.517,2.645 3.097,5.291 5.807,5.744 v 0.062 c -0.516,-2.708 -3.097,-5.291 -5.742,-5.871 v 0" />
    <path
       inkscape:connector-curvature="0"
       id="path422"
       style="fill:#12110f;fill-opacity:1;fill-rule:evenodd;stroke:none;stroke-width:0.1"
       d="m 330.944,275.398 -0.065,0.063 c 2.323,1.552 6,1.484 8.258,0 v 0 c -2.258,-1.547 -5.935,-1.547 -8.193,-0.063 v 0" />
    <path
       inkscape:connector-curvature="0"
       id="path424"
       style="fill:#12110f;fill-opacity:1;fill-rule:evenodd;stroke:none;stroke-width:0.1"
       d="m 333.524,281.721 v 0.066 c 2.71,-0.517 5.291,-3.163 5.807,-5.808 v 0 c -2.645,0.451 -5.29,3.032 -5.807,5.742 v 0" />
    <path
       inkscape:connector-curvature="0"
       id="path426"
       style="fill:#12110f;fill-opacity:1;fill-rule:evenodd;stroke:none;stroke-width:0.1"
       d="m 339.459,275.141 c 0.194,-0.258 0.516,-0.258 0.709,-0.129 0.261,0.191 0.261,0.515 0.129,0.773 -0.193,0.194 -0.515,0.258 -0.773,0.065 -0.193,-0.194 -0.258,-0.518 -0.065,-0.709 v 0" />
    <path
       inkscape:connector-curvature="0"
       id="path428"
       style="fill:#12110f;fill-opacity:1;fill-rule:evenodd;stroke:none;stroke-width:0.1"
       d="m 340.233,305.08 c -4.128,-5.162 -8.129,-9.614 -11.872,-13.355 -3.419,-3.422 -6.773,-6.389 -9.936,-8.906 -2.903,-2.258 -5.741,-4.259 -8.451,-5.935 -2.581,-1.614 -5.097,-2.97 -7.484,-4.069 -2.323,-1.095 -4.517,-1.933 -6.711,-2.645 -2.065,-0.709 -4.13,-1.225 -6.131,-1.547 -1.869,-0.387 -3.74,-0.644 -5.547,-0.711 -1.808,-0.13 -3.548,-0.062 -5.226,0.067 -5.162,0.062 -10.259,1.224 -14.711,3.483 -4.517,2.194 -8.582,5.68 -11.421,10.065 -1.418,2.259 -2.58,4.84 -3.225,7.552 -0.711,2.708 -0.969,5.678 -0.58,8.517 0.773,5.87 4.256,11.615 9.417,14.582 2.648,1.483 5.616,2.323 8.519,2.452 2.902,0.064 5.741,-0.582 8.257,-1.742 0.325,-0.129 0.647,-0.323 0.97,-0.452 -1.421,0.064 -2.839,0 -4.324,-0.387 -6.904,-1.742 -11.163,-8.777 -9.42,-15.745 1.743,-6.967 8.775,-11.226 15.744,-9.484 6.968,1.741 11.225,8.839 9.485,15.808 -2.001,8.067 -9.163,16.453 -17.165,18.649 -5.935,1.676 -12.775,0.709 -18.065,-2.841 -5.29,-3.548 -8.775,-9.421 -9.871,-15.55 -0.58,-3.032 -0.58,-6.067 -0.129,-8.97 0.451,-2.903 1.289,-5.678 2.452,-8.258 1.095,-2.452 2.516,-4.775 4.13,-6.841 1.611,-2.001 3.354,-3.872 5.29,-5.419 3.741,-3.099 8,-5.357 12.452,-6.84 4.452,-1.483 9.227,-2.13 14.131,-2.066 2.58,0.065 5.161,0.325 7.871,0.775 2.774,0.453 5.612,1.162 8.517,2.196 1.548,0.516 3.097,1.096 4.644,1.74 1.614,0.647 3.292,1.421 4.97,2.323 1.741,0.84 3.548,1.872 5.355,2.97 1.872,1.16 3.805,2.388 5.806,3.806 2.13,1.485 4.259,3.096 6.453,4.904 2.323,1.934 4.71,4.001 7.161,6.322 1.29,1.227 2.581,2.517 3.935,3.872 1.356,1.418 2.776,2.841 4.194,4.389 1.485,1.613 3.033,3.357 4.582,5.097 1.549,1.872 3.225,3.87 4.839,5.937 1.742,2.193 3.55,4.451 5.355,6.906 1.871,2.516 3.807,5.223 5.808,8.064 2.065,2.968 4.192,6.193 6.386,9.551 0.775,1.16 1.549,2.386 2.323,3.612 l -6.064,1.936 c -3.032,-5.358 -4.968,-8.39 -7.742,-12.84 -5.293,-8.261 -10.261,-15.165 -14.971,-20.972 v 0" />
    <path
       inkscape:connector-curvature="0"
       id="path430"
       style="fill:#12110f;fill-opacity:1;fill-rule:evenodd;stroke:none;stroke-width:0.1"
       d="m 392.045,384.126 c 0.258,-3.873 0.258,-7.292 0.064,-10.453 -0.193,-2.775 -0.451,-5.358 -0.838,-7.678 -0.389,-2.13 -0.84,-4.131 -1.356,-5.94 -0.516,-1.676 -1.031,-3.223 -1.678,-4.644 -0.58,-1.353 -1.225,-2.581 -1.869,-3.741 -0.647,-1.163 -1.292,-2.13 -2.065,-3.099 -0.647,-0.903 -1.356,-1.743 -2.13,-2.452 -0.709,-0.776 -1.485,-1.421 -2.258,-2.001 -2.323,-1.998 -4.968,-3.483 -7.807,-4.257 -2.776,-0.776 -5.873,-0.84 -8.84,-0.066 -1.549,0.453 -3.032,1.098 -4.388,2 -1.354,0.902 -2.58,2.13 -3.547,3.548 -1.937,2.842 -2.645,6.647 -1.614,9.939 0.58,1.679 1.549,3.226 2.774,4.386 1.227,1.163 2.71,2.001 4.259,2.454 0.193,0.063 0.387,0.129 0.58,0.191 -0.644,-0.515 -1.225,-1.093 -1.743,-1.804 -2.322,-3.487 -1.418,-8.195 2.065,-10.52 3.486,-2.387 8.196,-1.482 10.519,2.001 2.387,3.486 1.482,8.197 -2.001,10.519 -4.066,2.774 -10.387,3.615 -14.775,1.419 -3.163,-1.548 -5.808,-4.647 -6.71,-8.259 -0.903,-3.612 -0.129,-7.484 1.807,-10.584 0.902,-1.547 2.129,-2.836 3.418,-3.935 1.356,-1.097 2.775,-2.001 4.259,-2.645 1.483,-0.645 2.968,-1.098 4.517,-1.356 1.418,-0.257 2.903,-0.386 4.388,-0.322 2.839,0.129 5.548,0.838 8.064,1.936 2.516,1.098 4.839,2.645 6.969,4.582 1.096,1.033 2.129,2.127 3.096,3.421 1.034,1.289 1.936,2.708 2.838,4.256 0.452,0.839 0.905,1.679 1.356,2.582 0.452,0.902 0.838,1.872 1.226,2.903 0.453,1.098 0.839,2.194 1.162,3.419 0.387,1.227 0.709,2.516 1.031,3.939 0.323,1.418 0.647,2.966 0.905,4.647 0.258,1.675 0.451,3.548 0.645,5.548 0.064,1.032 0.129,2.063 0.193,3.161 0.064,1.16 0.064,2.323 0.129,3.548 0,1.292 0,2.645 -0.065,4.002 0,1.417 -0.064,2.903 -0.128,4.452 -0.129,1.612 -0.258,3.354 -0.387,5.097 -0.193,1.805 -0.387,3.743 -0.645,5.744 -0.26,2.13 -0.582,4.387 -0.969,6.709 -0.129,0.774 -0.258,1.614 -0.387,2.388 l -2.001,1.356 -1.613,-1.614 c 0.711,-3.548 1.356,-6.776 1.871,-9.808 0.905,-5.677 1.486,-10.581 1.679,-14.969 v 0" />
    <path
       inkscape:connector-curvature="0"
       id="path432"
       style="fill:#12110f;fill-opacity:1;fill-rule:evenodd;stroke:none;stroke-width:0.1"
       d="m 405.271,428.455 c -4.128,-5.163 -8.129,-9.615 -11.937,-13.358 -3.419,-3.42 -6.709,-6.387 -9.872,-8.904 -2.902,-2.323 -5.741,-4.259 -8.515,-5.937 -2.516,-1.612 -5.032,-2.968 -7.485,-4.064 -2.258,-1.098 -4.452,-1.936 -6.646,-2.645 -2.129,-0.712 -4.129,-1.228 -6.13,-1.55 -1.87,-0.387 -3.741,-0.646 -5.613,-0.709 -1.742,-0.129 -3.483,-0.066 -5.161,0.063 -5.162,0.066 -10.259,1.226 -14.775,3.485 -4.452,2.194 -8.518,5.678 -11.357,10.066 -1.485,2.258 -2.58,4.841 -3.289,7.549 -0.712,2.712 -0.905,5.68 -0.516,8.519 0.774,5.873 4.192,11.615 9.418,14.583 2.583,1.485 5.55,2.322 8.518,2.451 2.903,0.065 5.741,-0.58 8.193,-1.74 0.325,-0.129 0.647,-0.325 0.969,-0.453 -1.356,0.064 -2.838,0 -4.259,-0.388 -6.968,-1.742 -11.163,-8.776 -9.42,-15.743 1.743,-6.971 8.776,-11.228 15.744,-9.488 6.969,1.744 11.225,8.844 9.485,15.81 -2.065,8.065 -9.163,16.455 -17.165,18.649 -5.935,1.612 -12.838,0.709 -18.064,-2.839 -5.29,-3.55 -8.776,-9.42 -9.872,-15.552 -0.58,-3.032 -0.58,-6.064 -0.129,-8.967 0.452,-2.903 1.29,-5.68 2.387,-8.261 1.161,-2.452 2.581,-4.775 4.195,-6.838 1.547,-2.001 3.354,-3.873 5.29,-5.422 3.677,-3.096 8,-5.355 12.453,-6.84 4.452,-1.485 9.226,-2.129 14.13,-2.063 2.516,0.063 5.161,0.258 7.806,0.774 2.775,0.451 5.678,1.16 8.583,2.192 1.482,0.516 3.096,1.098 4.643,1.742 1.614,0.645 3.292,1.421 4.971,2.323 1.74,0.838 3.482,1.872 5.354,2.968 1.872,1.163 3.806,2.388 5.806,3.808 2.065,1.483 4.195,3.097 6.453,4.904 2.323,1.937 4.71,3.999 7.162,6.324 1.289,1.225 2.581,2.517 3.935,3.873 1.355,1.418 2.776,2.837 4.194,4.386 1.484,1.614 2.968,3.355 4.516,5.097 1.615,1.872 3.226,3.873 4.904,5.936 1.743,2.196 3.485,4.454 5.29,6.905 1.936,2.516 3.873,5.228 5.873,8.066 2.065,2.968 4.192,6.196 6.387,9.551 0.775,1.162 1.548,2.387 2.322,3.612 l -6.064,1.936 c -3.096,-5.355 -4.967,-8.387 -7.806,-12.84 -5.229,-8.258 -10.197,-15.163 -14.906,-20.971 v 0" />
    <path
       inkscape:connector-curvature="0"
       id="path434"
       style="fill:#12110f;fill-opacity:1;fill-rule:evenodd;stroke:none;stroke-width:0.1"
       d="m 310.554,386.06 c -2.903,-1.096 -5.419,-2.259 -7.613,-3.419 -2.001,-1.032 -3.808,-2.063 -5.355,-3.097 -1.42,-0.967 -2.71,-1.937 -3.872,-2.905 -1.031,-0.903 -2.001,-1.87 -2.839,-2.775 -0.773,-0.838 -1.484,-1.743 -2.129,-2.579 -0.58,-0.84 -1.096,-1.681 -1.549,-2.454 -0.451,-0.838 -0.774,-1.613 -1.096,-2.388 -0.323,-0.773 -0.516,-1.547 -0.709,-2.32 -0.711,-2.325 -0.905,-4.713 -0.582,-7.033 0.388,-2.325 1.291,-4.584 2.905,-6.454 0.773,-0.967 1.74,-1.871 2.838,-2.517 1.096,-0.709 2.387,-1.224 3.741,-1.484 2.645,-0.516 5.68,0.26 7.745,2.13 1.031,0.904 1.869,2.129 2.322,3.421 0.452,1.224 0.516,2.579 0.387,3.87 0,0.193 -0.064,0.322 -0.064,0.518 -0.129,-0.647 -0.387,-1.292 -0.776,-1.872 -1.741,-2.841 -5.484,-3.68 -8.323,-1.938 -2.838,1.742 -3.743,5.486 -1.936,8.325 1.743,2.839 5.484,3.741 8.325,1.935 3.29,-2 6,-6.388 5.806,-10.26 -0.064,-2.837 -1.485,-5.741 -3.808,-7.55 -2.323,-1.869 -5.419,-2.578 -8.322,-2.192 -1.356,0.194 -2.71,0.645 -4.001,1.225 -1.16,0.58 -2.323,1.354 -3.29,2.259 -0.902,0.838 -1.742,1.807 -2.451,2.776 -0.645,1.031 -1.227,2.064 -1.614,3.161 -0.838,2.063 -1.225,4.26 -1.29,6.452 0,2.194 0.387,4.388 1.097,6.582 0.386,1.095 0.904,2.258 1.484,3.354 0.581,1.163 1.29,2.325 2.13,3.486 0.451,0.58 0.967,1.227 1.482,1.805 0.516,0.647 1.098,1.228 1.743,1.872 0.58,0.645 1.291,1.291 2.065,1.936 0.773,0.71 1.612,1.354 2.516,2.065 0.967,0.712 2,1.418 3.097,2.13 1.162,0.773 2.451,1.547 3.807,2.259 0.709,0.387 1.483,0.838 2.259,1.226 0.837,0.387 1.675,0.836 2.58,1.226 0.903,0.451 1.872,0.838 2.903,1.291 1.032,0.449 2.13,0.902 3.29,1.353 1.227,0.452 2.452,0.906 3.808,1.355 1.418,0.453 2.839,0.969 4.387,1.42 1.612,0.518 3.355,0.967 5.162,1.483 0.644,0.196 1.289,0.324 1.936,0.518 v -2.968 c -2.841,-0.582 -4.452,-0.97 -6.775,-1.614 -4.453,-1.16 -8.196,-2.387 -11.421,-3.614 v 0" />
    <path
       inkscape:connector-curvature="0"
       id="path436"
       style="fill:#12110f;fill-opacity:1;fill-rule:evenodd;stroke:none;stroke-width:0.1"
       d="m 456.631,470.912 c 2.839,4.13 5.161,8.002 7.098,11.55 1.74,3.228 3.16,6.26 4.256,9.101 1.098,2.645 1.871,5.162 2.516,7.483 0.647,2.196 1.034,4.324 1.356,6.324 0.258,1.872 0.387,3.679 0.452,5.422 0.064,1.676 0,3.224 -0.194,4.775 -0.129,1.483 -0.386,2.903 -0.709,4.193 -0.322,1.356 -0.709,2.581 -1.227,3.743 -1.096,3.806 -3.097,7.225 -5.677,9.999 -2.581,2.777 -6.002,4.971 -9.808,6.067 -1.935,0.58 -4.065,0.838 -6.13,0.776 -2.194,-0.129 -4.321,-0.583 -6.386,-1.485 -4.066,-1.872 -7.42,-5.615 -8.518,-10.002 -0.515,-2.193 -0.451,-4.581 0.129,-6.711 0.516,-2.129 1.614,-4.064 2.968,-5.615 0.195,-0.191 0.389,-0.387 0.582,-0.578 -0.387,0.967 -0.647,2.063 -0.647,3.161 -0.257,5.42 3.937,10.066 9.356,10.323 5.486,0.194 10.067,-4.001 10.325,-9.42 0.258,-5.42 -3.936,-10.066 -9.42,-10.324 -6.324,-0.258 -13.937,3.097 -17.292,8.452 -2.451,3.937 -3.227,9.099 -1.807,13.68 1.418,4.646 4.904,8.452 9.098,10.582 2.063,1.033 4.321,1.678 6.515,2 2.194,0.325 4.388,0.325 6.517,0.067 2.066,-0.26 4.001,-0.84 5.871,-1.552 1.807,-0.707 3.55,-1.611 5.099,-2.645 3.032,-2.063 5.612,-4.646 7.678,-7.549 2.001,-2.968 3.548,-6.258 4.516,-9.871 0.581,-1.809 0.903,-3.743 1.161,-5.808 0.257,-2.13 0.386,-4.324 0.257,-6.711 0,-1.228 -0.128,-2.452 -0.257,-3.744 -0.129,-1.354 -0.323,-2.707 -0.58,-4.128 -0.258,-1.421 -0.581,-2.968 -1.034,-4.517 -0.386,-1.612 -0.902,-3.292 -1.482,-5.033 -0.645,-1.872 -1.357,-3.741 -2.194,-5.742 -0.838,-2.13 -1.873,-4.326 -3.033,-6.582 -0.582,-1.225 -1.226,-2.452 -1.935,-3.679 -0.709,-1.29 -1.486,-2.646 -2.323,-4.064 -0.84,-1.42 -1.743,-2.841 -2.709,-4.388 -0.97,-1.55 -2.066,-3.161 -3.164,-4.842 -1.225,-1.676 -2.516,-3.481 -3.87,-5.353 l -1.227,-1.549 h -5.161 c 4.387,5.161 8,9.872 11.034,14.194 v 0" />
    <path
       inkscape:connector-curvature="0"
       id="path438"
       style="fill:#12110f;fill-opacity:1;fill-rule:evenodd;stroke:none;stroke-width:0.1"
       d="m 398.82,594.417 c -2.258,3.356 -4.13,6.451 -5.679,9.292 -1.418,2.581 -2.516,5.033 -3.419,7.291 -0.838,2.13 -1.55,4.131 -2.065,6.002 -0.451,1.806 -0.774,3.484 -1.032,5.096 -0.193,1.485 -0.322,2.97 -0.386,4.326 0,1.353 0.064,2.645 0.193,3.87 0.065,1.163 0.258,2.259 0.58,3.354 0.194,1.032 0.516,2.066 0.903,2.97 0.969,3.032 2.516,5.807 4.581,8.001 2.129,2.258 4.839,3.999 7.871,4.904 1.549,0.451 3.292,0.644 4.968,0.58 1.678,-0.064 3.421,-0.451 5.099,-1.16 3.225,-1.485 6,-4.453 6.837,-8.065 0.389,-1.743 0.389,-3.615 -0.064,-5.358 -0.516,-1.676 -1.353,-3.228 -2.452,-4.517 -0.129,-0.129 -0.322,-0.258 -0.451,-0.451 0.322,0.838 0.515,1.678 0.515,2.581 0.194,4.324 -3.16,8.003 -7.483,8.261 -4.389,0.19 -8.065,-3.228 -8.323,-7.55 -0.193,-4.388 3.225,-8.067 7.549,-8.261 5.097,-0.257 11.227,2.452 13.873,6.709 2.001,3.164 2.645,7.358 1.482,11.035 -1.096,3.679 -3.935,6.776 -7.291,8.454 -1.676,0.839 -3.482,1.354 -5.226,1.612 -1.806,0.258 -3.547,0.258 -5.225,0.067 -1.679,-0.258 -3.226,-0.647 -4.711,-1.227 -1.485,-0.583 -2.838,-1.29 -4.065,-2.13 -2.452,-1.676 -4.581,-3.744 -6.193,-6.064 -1.614,-2.388 -2.838,-5.033 -3.679,-7.936 -0.386,-1.485 -0.709,-3.035 -0.902,-4.646 -0.193,-1.743 -0.258,-3.486 -0.193,-5.358 0,-1.031 0.064,-2 0.193,-3.032 0.129,-1.098 0.258,-2.194 0.516,-3.29 0.193,-1.163 0.451,-2.387 0.773,-3.615 0.325,-1.356 0.776,-2.709 1.227,-4.063 0.516,-1.485 1.096,-3.035 1.743,-4.646 0.709,-1.681 1.482,-3.422 2.451,-5.293 0.452,-0.968 0.968,-1.936 1.548,-2.968 0.582,-1.031 1.162,-2.065 1.807,-3.228 0.709,-1.096 1.42,-2.258 2.194,-3.484 0.838,-1.291 1.678,-2.58 2.58,-3.87 0.968,-1.42 2.001,-2.84 3.097,-4.323 1.163,-1.55 2.387,-3.163 3.678,-4.775 0.774,-0.967 1.613,-2.001 2.452,-2.968 h 4.775 c -1.807,1.934 -3.486,3.741 -4.968,5.549 -3.936,4.517 -7.033,8.58 -9.678,12.324 v 0" />
    <path
       inkscape:connector-curvature="0"
       id="path440"
       style="fill:#12110f;fill-opacity:1;fill-rule:evenodd;stroke:none;stroke-width:0.1"
       d="m 447.082,556.217 c -2.323,2.774 -4.518,5.162 -6.582,7.162 -1.872,1.872 -3.677,3.419 -5.419,4.775 -1.614,1.227 -3.163,2.324 -4.646,3.228 -1.356,0.838 -2.774,1.548 -4.066,2.13 -1.224,0.578 -2.451,1.031 -3.676,1.418 -1.098,0.387 -2.194,0.645 -3.293,0.841 -1.031,0.128 -2.064,0.257 -3.031,0.319 -0.967,0.067 -1.936,0 -2.839,-0.062 -2.839,-0.067 -5.548,-0.711 -8,-2.001 -2.386,-1.227 -4.581,-3.098 -6.13,-5.55 -0.774,-1.225 -1.356,-2.581 -1.743,-4.066 -0.322,-1.483 -0.451,-3.095 -0.193,-4.646 0.387,-3.161 2.323,-6.258 5.161,-7.869 1.421,-0.776 3.034,-1.228 4.646,-1.292 1.549,0 3.098,0.387 4.453,0.967 0.193,0.129 0.322,0.196 0.515,0.325 -0.773,-0.067 -1.548,-0.067 -2.323,0.128 -3.806,0.903 -6.128,4.708 -5.226,8.517 0.905,3.808 4.71,6.128 8.518,5.226 3.806,-0.903 6.128,-4.71 5.226,-8.518 -1.034,-4.387 -4.904,-8.968 -9.227,-10.195 -3.226,-0.967 -6.904,-0.451 -9.807,1.42 -2.903,1.87 -4.839,5.097 -5.483,8.387 -0.259,1.615 -0.323,3.293 -0.065,4.905 0.193,1.549 0.645,3.032 1.225,4.454 0.644,1.354 1.356,2.646 2.258,3.742 0.838,1.096 1.807,2.127 2.838,2.968 2.001,1.742 4.324,2.969 6.711,3.805 2.452,0.776 5.033,1.227 7.678,1.163 1.356,0 2.774,-0.129 4.258,-0.322 1.486,-0.259 3.033,-0.645 4.647,-1.161 0.838,-0.258 1.678,-0.582 2.515,-0.905 0.903,-0.386 1.808,-0.773 2.71,-1.224 0.969,-0.516 1.936,-1.034 2.968,-1.615 1.033,-0.644 2.065,-1.289 3.162,-2.065 1.161,-0.773 2.324,-1.678 3.548,-2.581 1.228,-1.031 2.581,-2.193 3.937,-3.419 0.644,-0.644 1.419,-1.356 2.13,-2.064 0.773,-0.776 1.546,-1.55 2.323,-2.388 0.773,-0.905 1.611,-1.807 2.451,-2.777 0.902,-0.967 1.805,-2.063 2.71,-3.161 0.967,-1.16 1.935,-2.387 2.902,-3.676 1.032,-1.421 2.13,-2.842 3.226,-4.389 1.163,-1.614 2.323,-3.357 3.55,-5.162 0.386,-0.644 0.838,-1.289 1.224,-1.936 l -0.515,-2.194 -2.194,0.129 c -1.678,2.903 -3.29,5.486 -4.839,7.936 -2.903,4.388 -5.613,8.132 -8.193,11.293 v 0" />
    <path
       inkscape:connector-curvature="0"
       id="path442"
       style="fill:#12110f;fill-opacity:1;fill-rule:evenodd;stroke:none;stroke-width:0.1"
       d="m 421.788,388.447 c -1.16,5.229 -1.871,10.003 -2.259,14.263 -0.386,3.87 -0.58,7.482 -0.515,10.775 0.064,2.968 0.257,5.742 0.581,8.387 0.322,2.388 0.775,4.646 1.291,6.711 0.515,2.001 1.095,3.873 1.743,5.551 0.644,1.677 1.353,3.226 2.193,4.646 0.709,1.354 1.547,2.646 2.388,3.87 0.838,1.163 1.74,2.195 2.709,3.164 2.71,3.29 6,5.871 9.743,7.482 3.676,1.679 7.936,2.517 12.13,2.001 2.193,-0.258 4.323,-0.838 6.386,-1.805 2.065,-0.969 4.001,-2.325 5.615,-4.066 3.289,-3.421 5.097,-8.516 4.321,-13.358 -0.386,-2.387 -1.354,-4.646 -2.839,-6.518 -1.418,-1.869 -3.29,-3.354 -5.29,-4.321 -0.257,-0.129 -0.515,-0.196 -0.773,-0.325 0.773,0.841 1.482,1.743 2,2.841 2.452,5.227 0.193,11.484 -5.097,14.001 -5.228,2.454 -11.485,0.195 -14.002,-5.033 -2.451,-5.291 -0.193,-11.548 5.098,-14.001 6.063,-2.903 14.968,-2.712 20.452,1.227 4.066,2.837 6.968,7.612 7.419,12.711 0.519,5.162 -1.418,10.324 -4.645,14.197 -1.612,1.869 -3.548,3.419 -5.613,4.646 -2.001,1.225 -4.194,2.063 -6.388,2.707 -2.127,0.516 -4.257,0.841 -6.386,0.905 -2.066,0 -4.13,-0.193 -6.131,-0.58 -3.806,-0.712 -7.42,-2.258 -10.645,-4.324 -3.161,-2 -6.066,-4.646 -8.518,-7.809 -1.289,-1.612 -2.451,-3.355 -3.547,-5.291 -1.099,-1.934 -2.13,-4.13 -2.968,-6.451 -0.453,-1.227 -0.905,-2.517 -1.292,-3.808 -0.386,-1.354 -0.773,-2.775 -1.095,-4.324 -0.325,-1.547 -0.647,-3.161 -0.84,-4.837 -0.258,-1.809 -0.451,-3.679 -0.645,-5.616 -0.129,-2.065 -0.193,-4.258 -0.193,-6.517 0,-2.45 0.129,-5.033 0.322,-7.743 0.065,-1.483 0.258,-2.903 0.387,-4.452 0.193,-1.547 0.386,-3.226 0.58,-4.905 0.26,-1.742 0.582,-3.548 0.904,-5.419 0.322,-2.001 0.774,-4.002 1.226,-6.132 0.453,-2.191 0.968,-4.45 1.549,-6.837 0.644,-2.455 1.356,-5.1 2.129,-7.807 0.774,-2.841 1.678,-5.809 2.709,-8.905 0.323,-1.099 0.709,-2.13 1.096,-3.229 l 4.324,2.775 c -1.805,4.646 -2.774,7.42 -4.128,11.421 -2.452,7.55 -4.258,14.197 -5.486,20.132 v 0" />
    <path
       inkscape:connector-curvature="0"
       id="path444"
       style="fill:#12110f;fill-opacity:1;fill-rule:evenodd;stroke:none;stroke-width:0.1"
       d="m 375.527,531.697 c -0.387,-6.26 -0.387,-11.873 -0.129,-16.905 0.193,-4.518 0.644,-8.646 1.291,-12.39 0.581,-3.485 1.29,-6.646 2.128,-9.549 0.775,-2.775 1.678,-5.291 2.647,-7.617 0.903,-2.127 1.869,-4.192 2.968,-6.064 1.031,-1.805 2.129,-3.419 3.289,-4.904 1.098,-1.485 2.258,-2.838 3.486,-4.063 1.16,-1.163 2.387,-2.259 3.612,-3.228 3.679,-3.226 7.935,-5.613 12.517,-6.905 4.517,-1.289 9.549,-1.485 14.323,-0.193 2.388,0.709 4.839,1.743 7.033,3.163 2.194,1.483 4.195,3.419 5.744,5.678 3.225,4.517 4.385,10.71 2.645,16.068 -0.84,2.707 -2.388,5.161 -4.388,7.095 -1.936,1.872 -4.323,3.228 -6.775,4.002 -0.322,0.129 -0.645,0.193 -1.031,0.258 1.095,-0.774 1.998,-1.743 2.774,-2.904 3.741,-5.615 2.258,-13.226 -3.356,-16.97 -5.614,-3.744 -13.226,-2.259 -16.969,3.356 -3.806,5.611 -2.259,13.228 3.355,16.971 6.516,4.388 16.777,5.677 23.809,2.192 5.162,-2.645 9.29,-7.614 10.774,-13.423 1.421,-5.806 0.129,-12.128 -2.967,-17.099 -1.549,-2.45 -3.486,-4.579 -5.615,-6.322 -2.128,-1.743 -4.45,-3.161 -6.902,-4.193 -2.322,-1.033 -4.774,-1.742 -7.226,-2.196 -2.387,-0.387 -4.775,-0.516 -7.097,-0.387 -4.581,0.196 -8.97,1.29 -13.035,3.099 -3.999,1.805 -7.807,4.322 -11.161,7.549 -1.743,1.614 -3.421,3.419 -4.968,5.485 -1.614,2.065 -3.163,4.386 -4.581,6.904 -0.711,1.292 -1.42,2.71 -2.13,4.128 -0.711,1.55 -1.356,3.099 -2,4.775 -0.645,1.743 -1.291,3.55 -1.807,5.487 -0.645,2 -1.16,4.13 -1.679,6.322 -0.515,2.387 -0.966,4.842 -1.353,7.487 -0.451,2.836 -0.774,5.806 -1.034,8.968 -0.064,1.678 -0.193,3.419 -0.258,5.161 -0.064,1.872 -0.128,3.744 -0.128,5.744 -0.065,2.063 0,4.193 0.064,6.452 0.064,2.258 0.129,4.712 0.322,7.162 0.132,2.646 0.389,5.358 0.647,8.196 0.258,2.968 0.645,6.067 1.031,9.29 0.452,3.421 0.97,7.034 1.614,10.777 0.194,1.29 0.451,2.581 0.645,3.935 l 5.484,-2.516 c -1.289,-5.611 -1.87,-8.968 -2.71,-13.872 -1.547,-9.034 -2.452,-16.97 -2.903,-24.004 v 0" />
    <path
       inkscape:connector-curvature="0"
       id="path446"
       style="fill:#12110f;fill-opacity:1;fill-rule:evenodd;stroke:none;stroke-width:0.1"
       d="m 369.332,484.917 c -2.709,1.676 -5.226,3.096 -7.484,4.259 -2.127,1.031 -4.063,1.869 -5.87,2.516 -1.744,0.645 -3.29,1.096 -4.84,1.483 -1.42,0.322 -2.774,0.58 -4.001,0.709 -1.224,0.129 -2.387,0.196 -3.483,0.196 -1.033,0 -2.065,-0.129 -3.032,-0.258 -0.905,-0.132 -1.807,-0.26 -2.647,-0.518 -0.838,-0.258 -1.612,-0.516 -2.388,-0.838 -2.32,-0.774 -4.514,-2.13 -6.192,-3.808 -1.743,-1.741 -3.032,-3.937 -3.679,-6.387 -0.322,-1.227 -0.451,-2.583 -0.322,-3.937 0.064,-1.354 0.451,-2.71 1.033,-4.001 1.225,-2.517 3.677,-4.582 6.515,-5.162 1.421,-0.322 2.906,-0.258 4.259,0.193 1.356,0.387 2.581,1.098 3.55,2.001 0.129,0.129 0.193,0.258 0.322,0.387 -0.58,-0.258 -1.291,-0.451 -2,-0.516 -3.419,-0.258 -6.453,2.323 -6.711,5.744 -0.258,3.481 2.323,6.516 5.744,6.774 3.483,0.258 6.451,-2.323 6.773,-5.809 0.258,-3.999 -1.676,-8.903 -5.033,-11.097 -2.451,-1.676 -5.741,-2.323 -8.644,-1.485 -2.97,0.84 -5.486,2.97 -6.904,5.615 -0.709,1.29 -1.163,2.71 -1.421,4.064 -0.257,1.42 -0.322,2.774 -0.193,4.13 0.193,1.356 0.451,2.583 0.905,3.806 0.387,1.165 0.902,2.258 1.547,3.292 1.227,1.937 2.838,3.613 4.645,4.969 1.872,1.356 3.937,2.387 6.196,3.098 1.16,0.387 2.387,0.707 3.676,0.903 1.356,0.194 2.774,0.258 4.259,0.258 0.774,0 1.549,0 2.387,-0.064 0.838,-0.065 1.679,-0.194 2.581,-0.323 0.967,-0.129 1.936,-0.324 2.903,-0.516 1.033,-0.258 2.129,-0.515 3.292,-0.905 1.16,-0.322 2.387,-0.773 3.676,-1.224 1.356,-0.516 2.774,-1.098 4.259,-1.808 0.774,-0.387 1.55,-0.775 2.387,-1.162 0.838,-0.449 1.679,-0.903 2.582,-1.354 0.902,-0.518 1.871,-1.096 2.838,-1.678 1.034,-0.581 2.065,-1.228 3.096,-1.934 1.163,-0.712 2.323,-1.486 3.485,-2.326 1.29,-0.902 2.581,-1.805 3.935,-2.836 1.42,-1.034 2.841,-2.13 4.388,-3.357 0.518,-0.453 1.033,-0.84 1.613,-1.289 l 0.129,-2.001 -1.871,-0.516 c -2.194,1.999 -4.323,3.806 -6.258,5.353 -3.678,2.97 -7.032,5.358 -10.002,7.359 v 0" />
    <path
       inkscape:connector-curvature="0"
       id="path448"
       style="fill:#12110f;fill-opacity:1;fill-rule:evenodd;stroke:none;stroke-width:0.1"
       d="m 381.333,610.872 c -1.999,-2.001 -3.677,-3.937 -5.032,-5.745 -1.29,-1.676 -2.388,-3.225 -3.29,-4.708 -0.838,-1.356 -1.55,-2.646 -2.13,-3.873 -0.515,-1.16 -0.966,-2.322 -1.354,-3.419 -0.324,-1.033 -0.582,-2 -0.775,-2.969 -0.193,-0.903 -0.322,-1.805 -0.322,-2.71 -0.065,-0.774 -0.065,-1.612 0,-2.387 0,-0.774 0.129,-1.483 0.258,-2.195 0.322,-2.259 1.033,-4.321 2.258,-6.131 1.162,-1.805 2.838,-3.352 4.839,-4.321 1.033,-0.516 2.194,-0.841 3.356,-1.032 1.225,-0.129 2.516,-0.067 3.677,0.191 2.452,0.647 4.71,2.388 5.742,4.776 0.517,1.227 0.711,2.516 0.582,3.743 -0.065,1.227 -0.516,2.452 -1.099,3.419 -0.128,0.129 -0.193,0.258 -0.257,0.386 0.064,-0.577 0.129,-1.224 0.064,-1.804 -0.387,-3.099 -3.161,-5.229 -6.257,-4.84 -3.034,0.387 -5.228,3.161 -4.839,6.196 0.387,3.094 3.161,5.224 6.257,4.837 3.55,-0.449 7.485,-3.032 8.841,-6.322 0.966,-2.452 0.902,-5.42 -0.323,-7.874 -1.227,-2.388 -3.55,-4.193 -6.131,-4.966 -1.224,-0.387 -2.516,-0.583 -3.805,-0.516 -1.227,0.062 -2.452,0.258 -3.614,0.578 -1.096,0.387 -2.194,0.84 -3.161,1.485 -0.905,0.516 -1.807,1.227 -2.581,1.936 -1.485,1.42 -2.645,3.164 -3.549,4.969 -0.838,1.807 -1.355,3.805 -1.548,5.935 -0.129,1.033 -0.193,2.196 -0.129,3.357 0.065,1.227 0.258,2.452 0.516,3.743 0.129,0.707 0.323,1.354 0.516,2.063 0.193,0.712 0.451,1.485 0.709,2.259 0.322,0.773 0.646,1.613 1.034,2.387 0.386,0.903 0.838,1.807 1.289,2.712 0.515,0.965 1.162,1.934 1.807,2.966 0.644,1.098 1.42,2.258 2.323,3.421 0.451,0.58 0.902,1.225 1.42,1.872 0.516,0.645 1.096,1.291 1.676,1.998 0.58,0.711 1.227,1.42 1.936,2.196 0.709,0.774 1.485,1.548 2.259,2.388 0.837,0.838 1.742,1.676 2.645,2.579 l 1.356,1.291 v -3.032 c -1.936,-1.678 -3.615,-3.292 -5.164,-4.839 v 0" />
    <path
       inkscape:connector-curvature="0"
       id="path450"
       style="fill:#12110f;fill-opacity:1;fill-rule:evenodd;stroke:none;stroke-width:0.1"
       d="m 449.533,343.925 c 2.646,-8.066 5.419,-15.163 8.258,-21.359 2.581,-5.677 5.226,-10.646 7.936,-15.098 2.454,-4.131 4.97,-7.808 7.486,-11.035 2.323,-3.097 4.71,-5.807 7.162,-8.259 2.258,-2.322 4.515,-4.388 6.837,-6.195 2.194,-1.743 4.389,-3.291 6.582,-4.646 2.13,-1.29 4.323,-2.388 6.453,-3.354 2.065,-0.906 4.13,-1.613 6.257,-2.195 6.26,-2.323 12.842,-3.225 19.227,-2.516 6.454,0.644 12.841,2.903 18.261,6.968 2.774,2.066 5.29,4.647 7.291,7.55 2.129,2.968 3.679,6.387 4.517,10.068 1.742,7.354 0.129,15.744 -4.711,21.746 -2.451,2.903 -5.677,5.291 -9.162,6.709 -3.419,1.418 -7.098,1.935 -10.645,1.677 -0.451,-0.064 -0.905,-0.131 -1.356,-0.193 1.743,-0.453 3.421,-1.227 4.968,-2.325 7.548,-5.224 9.485,-15.614 4.258,-23.163 -5.225,-7.615 -15.615,-9.486 -23.227,-4.26 -7.549,5.228 -9.486,15.617 -4.257,23.166 6.063,8.841 18.451,15.679 29.034,14.712 7.871,-0.709 15.678,-4.969 20.388,-11.549 4.774,-6.646 6.324,-15.294 4.839,-23.168 -0.645,-3.806 -2.065,-7.482 -3.937,-10.839 -1.74,-3.29 -4.063,-6.193 -6.579,-8.776 -2.452,-2.45 -5.226,-4.58 -8.067,-6.322 -2.838,-1.744 -5.806,-3.099 -8.774,-4.196 -5.872,-1.998 -12.065,-2.774 -18.066,-2.516 -6,0.26 -12.066,1.549 -17.937,3.871 -3.031,1.164 -6.065,2.647 -9.033,4.454 -3.097,1.805 -6.195,3.934 -9.291,6.451 -1.612,1.356 -3.161,2.712 -4.774,4.26 -1.677,1.547 -3.29,3.161 -4.905,4.968 -1.742,1.872 -3.418,3.871 -5.096,6 -1.742,2.258 -3.484,4.646 -5.29,7.229 -1.808,2.708 -3.615,5.613 -5.485,8.776 -1.935,3.353 -3.872,6.967 -5.743,10.84 -1.031,2.063 -2.001,4.193 -3.032,6.389 -0.967,2.32 -2,4.708 -3.031,7.225 -1.035,2.583 -2.066,5.291 -3.163,8.196 l -0.839,2.452 h 6.131 l 0.515,-1.743" />
    <path
       inkscape:connector-curvature="0"
       id="path452"
       style="fill:#12110f;fill-opacity:1;fill-rule:evenodd;stroke:none;stroke-width:0.1"
       d="m 448.178,308.048 c -4.324,2.776 -8.323,5.035 -12.066,6.84 -3.354,1.676 -6.451,3.032 -9.421,4.131 -2.709,0.966 -5.29,1.742 -7.742,2.32 -2.258,0.518 -4.452,0.905 -6.516,1.163 -1.935,0.193 -3.806,0.322 -5.549,0.26 -1.678,0 -3.354,-0.129 -4.904,-0.325 -1.484,-0.193 -2.902,-0.515 -4.258,-0.902 -1.354,-0.325 -2.581,-0.774 -3.805,-1.29 -3.809,-1.355 -7.227,-3.421 -10.001,-6.197 -2.776,-2.775 -4.904,-6.258 -5.873,-10.194 -0.516,-2.064 -0.773,-4.194 -0.58,-6.387 0.129,-2.195 0.709,-4.389 1.678,-6.39 1.999,-4.128 6,-7.484 10.516,-8.454 2.323,-0.449 4.711,-0.32 6.905,0.325 2.129,0.645 4.063,1.805 5.612,3.29 0.193,0.194 0.387,0.387 0.58,0.582 -1.031,-0.388 -2.063,-0.711 -3.225,-0.775 -5.548,-0.451 -10.387,3.741 -10.839,9.292 -0.453,5.549 3.742,10.388 9.289,10.842 5.551,0.386 10.39,-3.744 10.841,-9.293 0.516,-6.453 -2.71,-14.392 -8.064,-17.94 -3.937,-2.71 -9.227,-3.676 -13.937,-2.387 -4.775,1.356 -8.84,4.775 -11.099,9.035 -1.16,2.062 -1.936,4.321 -2.323,6.58 -0.386,2.258 -0.451,4.516 -0.257,6.646 0.257,2.13 0.709,4.13 1.42,6.067 0.645,1.869 1.482,3.678 2.516,5.291 2.001,3.225 4.581,5.937 7.485,8.067 2.967,2.192 6.257,3.87 9.936,5.032 1.871,0.578 3.872,1.032 5.935,1.355 2.129,0.322 4.452,0.517 6.839,0.517 1.227,0 2.516,-0.066 3.808,-0.195 1.418,-0.064 2.774,-0.258 4.259,-0.451 1.482,-0.194 3.031,-0.517 4.645,-0.905 1.676,-0.387 3.419,-0.836 5.226,-1.354 1.934,-0.58 3.87,-1.292 5.936,-2.065 2.193,-0.838 4.452,-1.743 6.838,-2.904 1.292,-0.58 2.517,-1.16 3.872,-1.804 1.354,-0.712 2.71,-1.486 4.193,-2.259 1.485,-0.841 2.97,-1.681 4.581,-2.646 1.614,-0.968 3.292,-2.001 5.033,-3.098 1.807,-1.228 3.679,-2.452 5.614,-3.806 1.998,-1.356 4.064,-2.905 6.258,-4.517 2.258,-1.678 4.646,-3.486 7.097,-5.487 0.841,-0.644 1.679,-1.355 2.516,-2.062 l 0.258,-3.164 -2.194,-0.58 c -7.161,6.389 -18.967,14.969 -27.033,20.196 v 0" />
    <path
       inkscape:connector-curvature="0"
       id="path454"
       style="fill:#12110f;fill-opacity:1;fill-rule:evenodd;stroke:none;stroke-width:0.1"
       d="m 528.313,357.348 c -4.386,5.419 -8.581,10.065 -12.582,14.066 -3.612,3.549 -7.097,6.648 -10.452,9.293 -3.096,2.449 -6.066,4.515 -8.968,6.322 -2.71,1.676 -5.356,3.099 -7.936,4.259 -2.388,1.096 -4.71,2.063 -7.033,2.774 -2.194,0.709 -4.323,1.227 -6.453,1.614 -2,0.387 -3.998,0.645 -5.87,0.71 -1.873,0.129 -3.744,0.064 -5.484,-0.065 -5.486,-0.064 -10.841,-1.29 -15.551,-3.676 -4.775,-2.388 -9.034,-6.003 -12.001,-10.649 -1.547,-2.388 -2.71,-5.1 -3.419,-7.936 -0.775,-2.904 -0.968,-6.002 -0.582,-9.035 0.84,-6.193 4.453,-12.195 10.002,-15.356 2.71,-1.614 5.871,-2.454 8.967,-2.517 3.034,-0.129 6.002,0.578 8.648,1.806 0.322,0.129 0.709,0.324 1.031,0.516 -1.483,-0.129 -2.968,-0.063 -4.515,0.324 -7.357,1.806 -11.807,9.292 -10.003,16.584 1.808,7.42 9.228,11.87 16.582,10.065 7.356,-1.807 11.872,-9.292 10.066,-16.65 -2.127,-8.516 -9.679,-17.358 -18.066,-19.678 -6.258,-1.809 -13.485,-0.775 -19.097,2.966 -5.549,3.681 -9.228,9.874 -10.452,16.325 -0.582,3.228 -0.582,6.453 -0.065,9.55 0.387,3.032 1.289,5.937 2.517,8.647 1.16,2.646 2.644,5.034 4.321,7.228 1.678,2.13 3.55,4.065 5.614,5.742 3.87,3.292 8.387,5.68 13.097,7.229 4.711,1.547 9.743,2.321 14.904,2.192 2.712,0 5.487,-0.258 8.26,-0.774 2.968,-0.516 5.936,-1.227 9.034,-2.258 1.611,-0.58 3.289,-1.16 4.903,-1.872 1.741,-0.709 3.483,-1.547 5.291,-2.449 1.807,-0.906 3.676,-1.939 5.612,-3.1 2.001,-1.227 4.065,-2.58 6.131,-4.064 2.258,-1.551 4.452,-3.227 6.84,-5.164 2.451,-1.998 4.967,-4.194 7.548,-6.644 1.354,-1.291 2.774,-2.646 4.192,-4.069 1.421,-1.482 2.905,-3.032 4.453,-4.643 1.549,-1.678 3.163,-3.483 4.774,-5.356 1.678,-1.935 3.421,-4.065 5.161,-6.195 1.808,-2.323 3.679,-4.71 5.616,-7.291 2,-2.645 4.062,-5.484 6.128,-8.516 2.258,-3.164 4.516,-6.518 6.839,-10.066 0.774,-1.227 1.614,-2.516 2.387,-3.81 l -6.388,-2.063 c -3.225,5.677 -5.226,8.905 -8.193,13.551 -5.613,8.71 -10.839,15.936 -15.808,22.133 v 0" />
    <path
       inkscape:connector-curvature="0"
       id="path456"
       style="fill:#12110f;fill-opacity:1;fill-rule:evenodd;stroke:none;stroke-width:0.1"
       d="m 402.109,248.62 c -0.644,-2.97 -1.224,-5.937 -1.742,-8.841 -7.806,-49.685 0.324,-83.884 -0.064,-85.045 0.84,-5.291 4.968,-8.969 9.226,-8.26 4.259,0.711 7.098,5.291 6.26,10.26 0.387,1.097 -8.26,33.489 -2.323,80.593 0.58,3.677 1.224,7.485 2.001,11.293 h -13.358" />
    <path
       inkscape:connector-curvature="0"
       id="path458"
       style="fill:#12110f;fill-opacity:1;fill-rule:evenodd;stroke:none;stroke-width:0.1"
       d="m 402.174,217.258 c -0.774,3.808 -1.613,7.163 -2.581,10.133 -0.838,2.71 -1.742,5.097 -2.709,7.291 -0.903,2.001 -1.807,3.744 -2.774,5.42 -0.905,1.485 -1.807,2.838 -2.775,4.13 -0.904,1.161 -1.807,2.192 -2.709,3.162 -0.905,0.902 -1.807,1.742 -2.776,2.452 -0.838,0.709 -1.741,1.353 -2.71,1.871 -0.838,0.515 -1.741,0.967 -2.645,1.353 -2.71,1.421 -5.677,2.198 -8.58,2.198 -2.97,0.061 -6.002,-0.583 -8.647,-2.13 -1.356,-0.777 -2.645,-1.743 -3.743,-2.97 -1.096,-1.228 -1.999,-2.71 -2.581,-4.322 -1.16,-3.228 -0.966,-7.1 0.905,-10.068 0.967,-1.483 2.258,-2.71 3.741,-3.549 1.485,-0.836 3.163,-1.291 4.71,-1.355 0.258,0 0.451,0 0.647,0 -0.776,0.322 -1.485,0.776 -2.13,1.355 -3.098,2.776 -3.356,7.55 -0.582,10.711 2.776,3.097 7.616,3.421 10.712,0.581 3.16,-2.775 3.418,-7.549 0.644,-10.71 -3.289,-3.616 -9.227,-6.002 -13.937,-4.969 -3.547,0.709 -6.839,3.096 -8.58,6.324 -1.807,3.29 -2,7.292 -0.905,10.775 0.519,1.678 1.356,3.226 2.388,4.647 1.033,1.353 2.194,2.58 3.485,3.611 1.225,0.97 2.581,1.808 3.999,2.388 1.356,0.645 2.776,1.099 4.194,1.421 2.775,0.58 5.616,0.58 8.325,0.129 2.71,-0.451 5.355,-1.421 7.871,-2.775 1.289,-0.709 2.581,-1.55 3.808,-2.516 1.353,-0.967 2.58,-2.129 3.869,-3.421 0.645,-0.709 1.292,-1.418 1.872,-2.193 0.709,-0.775 1.354,-1.613 2.001,-2.515 0.644,-0.97 1.289,-1.939 1.936,-3.032 0.645,-1.099 1.289,-2.259 1.998,-3.553 0.647,-1.354 1.292,-2.775 1.936,-4.257 0.71,-1.611 1.356,-3.354 2.001,-5.227 0.322,-0.968 0.709,-2 1.031,-3.098 0.325,-1.096 0.647,-2.193 0.97,-3.419 0.322,-1.228 0.644,-2.517 0.966,-3.873 0.323,-1.354 0.58,-2.836 0.905,-4.321 0.322,-1.614 0.58,-3.291 0.902,-5.033 0.258,-1.807 0.517,-3.744 0.774,-5.744 0.258,-2.13 0.518,-4.389 0.776,-6.709 0.064,-0.841 0.129,-1.614 0.193,-2.455 l -3.679,0.645 c -0.128,3.55 -0.257,5.68 -0.515,8.714 -0.516,5.678 -1.228,10.644 -2.001,14.903 v 0" />
    <path
       inkscape:connector-curvature="0"
       id="path460"
       style="fill:#12110f;fill-opacity:1;fill-rule:evenodd;stroke:none;stroke-width:0.1"
       d="m 412.304,188.417 c 0.711,3.741 1.549,7.163 2.515,10.128 0.841,2.647 1.744,5.1 2.71,7.229 0.905,2.001 1.807,3.806 2.777,5.42 0.902,1.547 1.804,2.904 2.774,4.13 0.902,1.16 1.807,2.192 2.709,3.161 0.902,0.903 1.808,1.744 2.774,2.452 0.838,0.709 1.743,1.354 2.71,1.872 0.84,0.581 1.743,1.034 2.645,1.42 2.71,1.354 5.68,2.13 8.582,2.193 2.968,0.066 6,-0.645 8.645,-2.13 1.356,-0.773 2.647,-1.806 3.743,-3.032 1.096,-1.228 2.001,-2.646 2.581,-4.26 1.226,-3.225 0.967,-7.096 -0.903,-10.065 -0.968,-1.486 -2.258,-2.71 -3.743,-3.548 -1.482,-0.84 -3.161,-1.291 -4.71,-1.356 -0.258,-0.064 -0.451,-0.064 -0.644,-0.064 0.773,0.322 1.484,0.775 2.129,1.353 3.096,2.777 3.354,7.616 0.58,10.713 -2.774,3.163 -7.549,3.421 -10.709,0.647 -3.099,-2.775 -3.421,-7.617 -0.648,-10.713 3.292,-3.679 9.228,-6.067 14.002,-5.033 3.486,0.776 6.776,3.097 8.518,6.386 1.805,3.229 2.001,7.23 0.902,10.713 -0.515,1.679 -1.355,3.293 -2.387,4.711 -0.966,1.356 -2.194,2.581 -3.483,3.548 -1.227,1.033 -2.581,1.808 -4.001,2.454 -1.356,0.578 -2.774,1.031 -4.194,1.354 -2.775,0.58 -5.614,0.58 -8.323,0.129 -2.645,-0.452 -5.355,-1.354 -7.873,-2.775 -1.29,-0.646 -2.581,-1.482 -3.805,-2.451 -1.292,-1.032 -2.581,-2.194 -3.872,-3.486 -0.645,-0.645 -1.289,-1.418 -1.869,-2.192 -0.712,-0.776 -1.357,-1.614 -2.001,-2.516 -0.647,-0.905 -1.292,-1.939 -1.937,-2.97 -0.644,-1.161 -1.291,-2.321 -1.935,-3.548 -0.709,-1.356 -1.354,-2.774 -2.001,-4.324 -0.709,-1.612 -1.354,-3.355 -2,-5.227 -0.323,-0.969 -0.645,-2 -1.032,-3.031 -0.322,-1.099 -0.644,-2.259 -0.967,-3.422 -0.325,-1.225 -0.647,-2.516 -0.969,-3.87 -0.323,-1.421 -0.58,-2.841 -0.903,-4.388 -0.322,-1.614 -0.58,-3.228 -0.904,-4.97 -0.258,-1.871 -0.516,-3.743 -0.774,-5.807 -0.258,-2.064 -0.516,-4.321 -0.709,-6.647 -0.129,-0.838 -0.194,-1.676 -0.258,-2.516 l 3.677,0.644 c 0.129,3.615 0.257,5.68 0.515,8.777 0.518,5.677 1.228,10.581 2.066,14.907 v 0" />
  </g>
</svg>
